<?xml version="1.0" encoding="utf-8" standalone="no"?>
<!DOCTYPE svg PUBLIC "-//W3C//DTD SVG 1.1//EN"
  "http://www.w3.org/Graphics/SVG/1.1/DTD/svg11.dtd">
<svg xmlns:xlink="http://www.w3.org/1999/xlink" width="576pt" height="288pt" viewBox="0 0 576 288" xmlns="http://www.w3.org/2000/svg" version="1.1">
 <metadata>
  <rdf:RDF xmlns:dc="http://purl.org/dc/elements/1.1/" xmlns:cc="http://creativecommons.org/ns#" xmlns:rdf="http://www.w3.org/1999/02/22-rdf-syntax-ns#">
   <cc:Work>
    <dc:type rdf:resource="http://purl.org/dc/dcmitype/StillImage"/>
    <dc:date>2023-05-13T00:28:02.823112</dc:date>
    <dc:format>image/svg+xml</dc:format>
    <dc:creator>
     <cc:Agent>
      <dc:title>Matplotlib v3.7.0, https://matplotlib.org/</dc:title>
     </cc:Agent>
    </dc:creator>
   </cc:Work>
  </rdf:RDF>
 </metadata>
 <defs>
  <style type="text/css">*{stroke-linejoin: round; stroke-linecap: butt}</style>
 </defs>
 <g id="figure_1">
  <g id="patch_1">
   <path d="M 0 288 
L 576 288 
L 576 0 
L 0 0 
z
" style="fill: #ffffff"/>
  </g>
  <g id="axes_1">
   <g id="patch_2">
    <path d="M 57.6 253.44 
L 518.4 253.44 
L 518.4 23.04 
L 57.6 23.04 
z
" style="fill: #eaeaf2"/>
   </g>
   <g id="matplotlib.axis_1">
    <g id="xtick_1">
     <g id="line2d_1">
      <path d="M 78.545455 253.44 
L 78.545455 23.04 
" clip-path="url(#p3e7b0cef02)" style="fill: none; stroke: #ffffff; stroke-linecap: round"/>
     </g>
     <g id="text_1">
      <!-- 0 -->
      <g style="fill: #262626" transform="translate(75.486939 270.813594) scale(0.11 -0.11)">
       <defs>
        <path id="ArialMT-30" d="M 266 2259 
Q 266 3072 433 3567 
Q 600 4063 929 4331 
Q 1259 4600 1759 4600 
Q 2128 4600 2406 4451 
Q 2684 4303 2865 4023 
Q 3047 3744 3150 3342 
Q 3253 2941 3253 2259 
Q 3253 1453 3087 958 
Q 2922 463 2592 192 
Q 2263 -78 1759 -78 
Q 1097 -78 719 397 
Q 266 969 266 2259 
z
M 844 2259 
Q 844 1131 1108 757 
Q 1372 384 1759 384 
Q 2147 384 2411 759 
Q 2675 1134 2675 2259 
Q 2675 3391 2411 3762 
Q 2147 4134 1753 4134 
Q 1366 4134 1134 3806 
Q 844 3388 844 2259 
z
" transform="scale(0.015625)"/>
       </defs>
       <use xlink:href="#ArialMT-30"/>
      </g>
     </g>
    </g>
    <g id="xtick_2">
     <g id="line2d_2">
      <path d="M 164.037106 253.44 
L 164.037106 23.04 
" clip-path="url(#p3e7b0cef02)" style="fill: none; stroke: #ffffff; stroke-linecap: round"/>
     </g>
     <g id="text_2">
      <!-- 10 -->
      <g style="fill: #262626" transform="translate(157.920075 270.813594) scale(0.11 -0.11)">
       <defs>
        <path id="ArialMT-31" d="M 2384 0 
L 1822 0 
L 1822 3584 
Q 1619 3391 1289 3197 
Q 959 3003 697 2906 
L 697 3450 
Q 1169 3672 1522 3987 
Q 1875 4303 2022 4600 
L 2384 4600 
L 2384 0 
z
" transform="scale(0.015625)"/>
       </defs>
       <use xlink:href="#ArialMT-31"/>
       <use xlink:href="#ArialMT-30" x="55.615234"/>
      </g>
     </g>
    </g>
    <g id="xtick_3">
     <g id="line2d_3">
      <path d="M 249.528757 253.44 
L 249.528757 23.04 
" clip-path="url(#p3e7b0cef02)" style="fill: none; stroke: #ffffff; stroke-linecap: round"/>
     </g>
     <g id="text_3">
      <!-- 20 -->
      <g style="fill: #262626" transform="translate(243.411726 270.813594) scale(0.11 -0.11)">
       <defs>
        <path id="ArialMT-32" d="M 3222 541 
L 3222 0 
L 194 0 
Q 188 203 259 391 
Q 375 700 629 1000 
Q 884 1300 1366 1694 
Q 2113 2306 2375 2664 
Q 2638 3022 2638 3341 
Q 2638 3675 2398 3904 
Q 2159 4134 1775 4134 
Q 1369 4134 1125 3890 
Q 881 3647 878 3216 
L 300 3275 
Q 359 3922 746 4261 
Q 1134 4600 1788 4600 
Q 2447 4600 2831 4234 
Q 3216 3869 3216 3328 
Q 3216 3053 3103 2787 
Q 2991 2522 2730 2228 
Q 2469 1934 1863 1422 
Q 1356 997 1212 845 
Q 1069 694 975 541 
L 3222 541 
z
" transform="scale(0.015625)"/>
       </defs>
       <use xlink:href="#ArialMT-32"/>
       <use xlink:href="#ArialMT-30" x="55.615234"/>
      </g>
     </g>
    </g>
    <g id="xtick_4">
     <g id="line2d_4">
      <path d="M 335.020408 253.44 
L 335.020408 23.04 
" clip-path="url(#p3e7b0cef02)" style="fill: none; stroke: #ffffff; stroke-linecap: round"/>
     </g>
     <g id="text_4">
      <!-- 30 -->
      <g style="fill: #262626" transform="translate(328.903377 270.813594) scale(0.11 -0.11)">
       <defs>
        <path id="ArialMT-33" d="M 269 1209 
L 831 1284 
Q 928 806 1161 595 
Q 1394 384 1728 384 
Q 2125 384 2398 659 
Q 2672 934 2672 1341 
Q 2672 1728 2419 1979 
Q 2166 2231 1775 2231 
Q 1616 2231 1378 2169 
L 1441 2663 
Q 1497 2656 1531 2656 
Q 1891 2656 2178 2843 
Q 2466 3031 2466 3422 
Q 2466 3731 2256 3934 
Q 2047 4138 1716 4138 
Q 1388 4138 1169 3931 
Q 950 3725 888 3313 
L 325 3413 
Q 428 3978 793 4289 
Q 1159 4600 1703 4600 
Q 2078 4600 2393 4439 
Q 2709 4278 2876 4000 
Q 3044 3722 3044 3409 
Q 3044 3113 2884 2869 
Q 2725 2625 2413 2481 
Q 2819 2388 3044 2092 
Q 3269 1797 3269 1353 
Q 3269 753 2831 336 
Q 2394 -81 1725 -81 
Q 1122 -81 723 278 
Q 325 638 269 1209 
z
" transform="scale(0.015625)"/>
       </defs>
       <use xlink:href="#ArialMT-33"/>
       <use xlink:href="#ArialMT-30" x="55.615234"/>
      </g>
     </g>
    </g>
    <g id="xtick_5">
     <g id="line2d_5">
      <path d="M 420.512059 253.44 
L 420.512059 23.04 
" clip-path="url(#p3e7b0cef02)" style="fill: none; stroke: #ffffff; stroke-linecap: round"/>
     </g>
     <g id="text_5">
      <!-- 40 -->
      <g style="fill: #262626" transform="translate(414.395028 270.813594) scale(0.11 -0.11)">
       <defs>
        <path id="ArialMT-34" d="M 2069 0 
L 2069 1097 
L 81 1097 
L 81 1613 
L 2172 4581 
L 2631 4581 
L 2631 1613 
L 3250 1613 
L 3250 1097 
L 2631 1097 
L 2631 0 
L 2069 0 
z
M 2069 1613 
L 2069 3678 
L 634 1613 
L 2069 1613 
z
" transform="scale(0.015625)"/>
       </defs>
       <use xlink:href="#ArialMT-34"/>
       <use xlink:href="#ArialMT-30" x="55.615234"/>
      </g>
     </g>
    </g>
    <g id="xtick_6">
     <g id="line2d_6">
      <path d="M 506.003711 253.44 
L 506.003711 23.04 
" clip-path="url(#p3e7b0cef02)" style="fill: none; stroke: #ffffff; stroke-linecap: round"/>
     </g>
     <g id="text_6">
      <!-- 50 -->
      <g style="fill: #262626" transform="translate(499.886679 270.813594) scale(0.11 -0.11)">
       <defs>
        <path id="ArialMT-35" d="M 266 1200 
L 856 1250 
Q 922 819 1161 601 
Q 1400 384 1738 384 
Q 2144 384 2425 690 
Q 2706 997 2706 1503 
Q 2706 1984 2436 2262 
Q 2166 2541 1728 2541 
Q 1456 2541 1237 2417 
Q 1019 2294 894 2097 
L 366 2166 
L 809 4519 
L 3088 4519 
L 3088 3981 
L 1259 3981 
L 1013 2750 
Q 1425 3038 1878 3038 
Q 2478 3038 2890 2622 
Q 3303 2206 3303 1553 
Q 3303 931 2941 478 
Q 2500 -78 1738 -78 
Q 1113 -78 717 272 
Q 322 622 266 1200 
z
" transform="scale(0.015625)"/>
       </defs>
       <use xlink:href="#ArialMT-35"/>
       <use xlink:href="#ArialMT-30" x="55.615234"/>
      </g>
     </g>
    </g>
    <g id="text_7">
     <!-- Epoch -->
     <g style="fill: #262626" transform="translate(270.988125 285.589219) scale(0.12 -0.12)">
      <defs>
       <path id="ArialMT-45" d="M 506 0 
L 506 4581 
L 3819 4581 
L 3819 4041 
L 1113 4041 
L 1113 2638 
L 3647 2638 
L 3647 2100 
L 1113 2100 
L 1113 541 
L 3925 541 
L 3925 0 
L 506 0 
z
" transform="scale(0.015625)"/>
       <path id="ArialMT-70" d="M 422 -1272 
L 422 3319 
L 934 3319 
L 934 2888 
Q 1116 3141 1344 3267 
Q 1572 3394 1897 3394 
Q 2322 3394 2647 3175 
Q 2972 2956 3137 2557 
Q 3303 2159 3303 1684 
Q 3303 1175 3120 767 
Q 2938 359 2589 142 
Q 2241 -75 1856 -75 
Q 1575 -75 1351 44 
Q 1128 163 984 344 
L 984 -1272 
L 422 -1272 
z
M 931 1641 
Q 931 1000 1190 694 
Q 1450 388 1819 388 
Q 2194 388 2461 705 
Q 2728 1022 2728 1688 
Q 2728 2322 2467 2637 
Q 2206 2953 1844 2953 
Q 1484 2953 1207 2617 
Q 931 2281 931 1641 
z
" transform="scale(0.015625)"/>
       <path id="ArialMT-6f" d="M 213 1659 
Q 213 2581 725 3025 
Q 1153 3394 1769 3394 
Q 2453 3394 2887 2945 
Q 3322 2497 3322 1706 
Q 3322 1066 3130 698 
Q 2938 331 2570 128 
Q 2203 -75 1769 -75 
Q 1072 -75 642 372 
Q 213 819 213 1659 
z
M 791 1659 
Q 791 1022 1069 705 
Q 1347 388 1769 388 
Q 2188 388 2466 706 
Q 2744 1025 2744 1678 
Q 2744 2294 2464 2611 
Q 2184 2928 1769 2928 
Q 1347 2928 1069 2612 
Q 791 2297 791 1659 
z
" transform="scale(0.015625)"/>
       <path id="ArialMT-63" d="M 2588 1216 
L 3141 1144 
Q 3050 572 2676 248 
Q 2303 -75 1759 -75 
Q 1078 -75 664 370 
Q 250 816 250 1647 
Q 250 2184 428 2587 
Q 606 2991 970 3192 
Q 1334 3394 1763 3394 
Q 2303 3394 2647 3120 
Q 2991 2847 3088 2344 
L 2541 2259 
Q 2463 2594 2264 2762 
Q 2066 2931 1784 2931 
Q 1359 2931 1093 2626 
Q 828 2322 828 1663 
Q 828 994 1084 691 
Q 1341 388 1753 388 
Q 2084 388 2306 591 
Q 2528 794 2588 1216 
z
" transform="scale(0.015625)"/>
       <path id="ArialMT-68" d="M 422 0 
L 422 4581 
L 984 4581 
L 984 2938 
Q 1378 3394 1978 3394 
Q 2347 3394 2619 3248 
Q 2891 3103 3008 2847 
Q 3125 2591 3125 2103 
L 3125 0 
L 2563 0 
L 2563 2103 
Q 2563 2525 2380 2717 
Q 2197 2909 1863 2909 
Q 1613 2909 1392 2779 
Q 1172 2650 1078 2428 
Q 984 2206 984 1816 
L 984 0 
L 422 0 
z
" transform="scale(0.015625)"/>
      </defs>
      <use xlink:href="#ArialMT-45"/>
      <use xlink:href="#ArialMT-70" x="66.699219"/>
      <use xlink:href="#ArialMT-6f" x="122.314453"/>
      <use xlink:href="#ArialMT-63" x="177.929688"/>
      <use xlink:href="#ArialMT-68" x="227.929688"/>
     </g>
    </g>
   </g>
   <g id="matplotlib.axis_2">
    <g id="ytick_1">
     <g id="line2d_7">
      <path d="M 57.6 245.826949 
L 518.4 245.826949 
" clip-path="url(#p3e7b0cef02)" style="fill: none; stroke: #ffffff; stroke-linecap: round"/>
     </g>
     <g id="text_8">
      <!-- 0.00 -->
      <g style="fill: #262626" transform="translate(26.692969 249.763746) scale(0.11 -0.11)">
       <defs>
        <path id="ArialMT-2e" d="M 581 0 
L 581 641 
L 1222 641 
L 1222 0 
L 581 0 
z
" transform="scale(0.015625)"/>
       </defs>
       <use xlink:href="#ArialMT-30"/>
       <use xlink:href="#ArialMT-2e" x="55.615234"/>
       <use xlink:href="#ArialMT-30" x="83.398438"/>
       <use xlink:href="#ArialMT-30" x="139.013672"/>
      </g>
     </g>
    </g>
    <g id="ytick_2">
     <g id="line2d_8">
      <path d="M 57.6 217.27513 
L 518.4 217.27513 
" clip-path="url(#p3e7b0cef02)" style="fill: none; stroke: #ffffff; stroke-linecap: round"/>
     </g>
     <g id="text_9">
      <!-- 0.05 -->
      <g style="fill: #262626" transform="translate(26.692969 221.211927) scale(0.11 -0.11)">
       <use xlink:href="#ArialMT-30"/>
       <use xlink:href="#ArialMT-2e" x="55.615234"/>
       <use xlink:href="#ArialMT-30" x="83.398438"/>
       <use xlink:href="#ArialMT-35" x="139.013672"/>
      </g>
     </g>
    </g>
    <g id="ytick_3">
     <g id="line2d_9">
      <path d="M 57.6 188.723311 
L 518.4 188.723311 
" clip-path="url(#p3e7b0cef02)" style="fill: none; stroke: #ffffff; stroke-linecap: round"/>
     </g>
     <g id="text_10">
      <!-- 0.10 -->
      <g style="fill: #262626" transform="translate(26.692969 192.660108) scale(0.11 -0.11)">
       <use xlink:href="#ArialMT-30"/>
       <use xlink:href="#ArialMT-2e" x="55.615234"/>
       <use xlink:href="#ArialMT-31" x="83.398438"/>
       <use xlink:href="#ArialMT-30" x="139.013672"/>
      </g>
     </g>
    </g>
    <g id="ytick_4">
     <g id="line2d_10">
      <path d="M 57.6 160.171492 
L 518.4 160.171492 
" clip-path="url(#p3e7b0cef02)" style="fill: none; stroke: #ffffff; stroke-linecap: round"/>
     </g>
     <g id="text_11">
      <!-- 0.15 -->
      <g style="fill: #262626" transform="translate(26.692969 164.108289) scale(0.11 -0.11)">
       <use xlink:href="#ArialMT-30"/>
       <use xlink:href="#ArialMT-2e" x="55.615234"/>
       <use xlink:href="#ArialMT-31" x="83.398438"/>
       <use xlink:href="#ArialMT-35" x="139.013672"/>
      </g>
     </g>
    </g>
    <g id="ytick_5">
     <g id="line2d_11">
      <path d="M 57.6 131.619673 
L 518.4 131.619673 
" clip-path="url(#p3e7b0cef02)" style="fill: none; stroke: #ffffff; stroke-linecap: round"/>
     </g>
     <g id="text_12">
      <!-- 0.20 -->
      <g style="fill: #262626" transform="translate(26.692969 135.55647) scale(0.11 -0.11)">
       <use xlink:href="#ArialMT-30"/>
       <use xlink:href="#ArialMT-2e" x="55.615234"/>
       <use xlink:href="#ArialMT-32" x="83.398438"/>
       <use xlink:href="#ArialMT-30" x="139.013672"/>
      </g>
     </g>
    </g>
    <g id="ytick_6">
     <g id="line2d_12">
      <path d="M 57.6 103.067854 
L 518.4 103.067854 
" clip-path="url(#p3e7b0cef02)" style="fill: none; stroke: #ffffff; stroke-linecap: round"/>
     </g>
     <g id="text_13">
      <!-- 0.25 -->
      <g style="fill: #262626" transform="translate(26.692969 107.004651) scale(0.11 -0.11)">
       <use xlink:href="#ArialMT-30"/>
       <use xlink:href="#ArialMT-2e" x="55.615234"/>
       <use xlink:href="#ArialMT-32" x="83.398438"/>
       <use xlink:href="#ArialMT-35" x="139.013672"/>
      </g>
     </g>
    </g>
    <g id="ytick_7">
     <g id="line2d_13">
      <path d="M 57.6 74.516035 
L 518.4 74.516035 
" clip-path="url(#p3e7b0cef02)" style="fill: none; stroke: #ffffff; stroke-linecap: round"/>
     </g>
     <g id="text_14">
      <!-- 0.30 -->
      <g style="fill: #262626" transform="translate(26.692969 78.452832) scale(0.11 -0.11)">
       <use xlink:href="#ArialMT-30"/>
       <use xlink:href="#ArialMT-2e" x="55.615234"/>
       <use xlink:href="#ArialMT-33" x="83.398438"/>
       <use xlink:href="#ArialMT-30" x="139.013672"/>
      </g>
     </g>
    </g>
    <g id="ytick_8">
     <g id="line2d_14">
      <path d="M 57.6 45.964217 
L 518.4 45.964217 
" clip-path="url(#p3e7b0cef02)" style="fill: none; stroke: #ffffff; stroke-linecap: round"/>
     </g>
     <g id="text_15">
      <!-- 0.35 -->
      <g style="fill: #262626" transform="translate(26.692969 49.901013) scale(0.11 -0.11)">
       <use xlink:href="#ArialMT-30"/>
       <use xlink:href="#ArialMT-2e" x="55.615234"/>
       <use xlink:href="#ArialMT-33" x="83.398438"/>
       <use xlink:href="#ArialMT-35" x="139.013672"/>
      </g>
     </g>
    </g>
    <g id="text_16">
     <!-- Loss -->
     <g style="fill: #262626" transform="translate(20.307969 150.913125) rotate(-90) scale(0.12 -0.12)">
      <defs>
       <path id="ArialMT-4c" d="M 469 0 
L 469 4581 
L 1075 4581 
L 1075 541 
L 3331 541 
L 3331 0 
L 469 0 
z
" transform="scale(0.015625)"/>
       <path id="ArialMT-73" d="M 197 991 
L 753 1078 
Q 800 744 1014 566 
Q 1228 388 1613 388 
Q 2000 388 2187 545 
Q 2375 703 2375 916 
Q 2375 1106 2209 1216 
Q 2094 1291 1634 1406 
Q 1016 1563 777 1677 
Q 538 1791 414 1992 
Q 291 2194 291 2438 
Q 291 2659 392 2848 
Q 494 3038 669 3163 
Q 800 3259 1026 3326 
Q 1253 3394 1513 3394 
Q 1903 3394 2198 3281 
Q 2494 3169 2634 2976 
Q 2775 2784 2828 2463 
L 2278 2388 
Q 2241 2644 2061 2787 
Q 1881 2931 1553 2931 
Q 1166 2931 1000 2803 
Q 834 2675 834 2503 
Q 834 2394 903 2306 
Q 972 2216 1119 2156 
Q 1203 2125 1616 2013 
Q 2213 1853 2448 1751 
Q 2684 1650 2818 1456 
Q 2953 1263 2953 975 
Q 2953 694 2789 445 
Q 2625 197 2315 61 
Q 2006 -75 1616 -75 
Q 969 -75 630 194 
Q 291 463 197 991 
z
" transform="scale(0.015625)"/>
      </defs>
      <use xlink:href="#ArialMT-4c"/>
      <use xlink:href="#ArialMT-6f" x="55.615234"/>
      <use xlink:href="#ArialMT-73" x="111.230469"/>
      <use xlink:href="#ArialMT-73" x="161.230469"/>
     </g>
    </g>
   </g>
   <g id="line2d_15">
    <path d="M 78.545455 33.512727 
L 87.09462 169.093549 
L 95.643785 188.43369 
L 104.19295 203.158122 
L 112.742115 207.306711 
L 121.29128 212.197217 
L 129.840445 216.101075 
L 138.38961 219.805112 
L 146.938776 221.161551 
L 155.487941 224.601073 
L 164.037106 225.279015 
L 172.586271 227.037692 
L 181.135436 226.831323 
L 189.684601 229.761617 
L 198.233766 229.114121 
L 206.782931 234.250949 
L 215.332096 229.282237 
L 223.881262 233.003433 
L 232.430427 232.896613 
L 240.979592 234.533183 
L 249.528757 236.321716 
L 258.077922 239.121054 
L 266.627087 237.329392 
L 275.176252 233.473915 
L 283.725417 232.957746 
L 292.274583 240.93987 
L 300.823748 238.582172 
L 309.372913 240.950972 
L 317.922078 237.306344 
L 326.471243 236.763667 
L 335.020408 237.132552 
L 343.569573 240.516282 
L 352.118738 238.637765 
L 360.667904 237.463178 
L 369.217069 242.967273 
L 377.766234 241.541846 
L 386.315399 237.335672 
L 394.864564 240.631838 
L 403.413729 242.938174 
L 411.962894 241.248311 
L 420.512059 239.33526 
L 429.061224 241.257129 
L 437.61039 240.528549 
L 446.159555 242.364489 
L 454.70872 241.957756 
L 463.257885 241.708236 
L 471.80705 239.353822 
L 480.356215 242.518624 
L 488.90538 241.18007 
L 497.454545 242.925174 
" clip-path="url(#p3e7b0cef02)" style="fill: none; stroke: #008000; stroke-width: 1.5; stroke-linecap: round"/>
    <defs>
     <path id="m630b1ef48e" d="M 0 3 
C 0.795609 3 1.55874 2.683901 2.12132 2.12132 
C 2.683901 1.55874 3 0.795609 3 0 
C 3 -0.795609 2.683901 -1.55874 2.12132 -2.12132 
C 1.55874 -2.683901 0.795609 -3 0 -3 
C -0.795609 -3 -1.55874 -2.683901 -2.12132 -2.12132 
C -2.683901 -1.55874 -3 -0.795609 -3 0 
C -3 0.795609 -2.683901 1.55874 -2.12132 2.12132 
C -1.55874 2.683901 -0.795609 3 0 3 
z
" style="stroke: #008000"/>
    </defs>
    <g clip-path="url(#p3e7b0cef02)">
     <use xlink:href="#m630b1ef48e" x="78.545455" y="33.512727" style="fill: #008000; stroke: #008000"/>
     <use xlink:href="#m630b1ef48e" x="87.09462" y="169.093549" style="fill: #008000; stroke: #008000"/>
     <use xlink:href="#m630b1ef48e" x="95.643785" y="188.43369" style="fill: #008000; stroke: #008000"/>
     <use xlink:href="#m630b1ef48e" x="104.19295" y="203.158122" style="fill: #008000; stroke: #008000"/>
     <use xlink:href="#m630b1ef48e" x="112.742115" y="207.306711" style="fill: #008000; stroke: #008000"/>
     <use xlink:href="#m630b1ef48e" x="121.29128" y="212.197217" style="fill: #008000; stroke: #008000"/>
     <use xlink:href="#m630b1ef48e" x="129.840445" y="216.101075" style="fill: #008000; stroke: #008000"/>
     <use xlink:href="#m630b1ef48e" x="138.38961" y="219.805112" style="fill: #008000; stroke: #008000"/>
     <use xlink:href="#m630b1ef48e" x="146.938776" y="221.161551" style="fill: #008000; stroke: #008000"/>
     <use xlink:href="#m630b1ef48e" x="155.487941" y="224.601073" style="fill: #008000; stroke: #008000"/>
     <use xlink:href="#m630b1ef48e" x="164.037106" y="225.279015" style="fill: #008000; stroke: #008000"/>
     <use xlink:href="#m630b1ef48e" x="172.586271" y="227.037692" style="fill: #008000; stroke: #008000"/>
     <use xlink:href="#m630b1ef48e" x="181.135436" y="226.831323" style="fill: #008000; stroke: #008000"/>
     <use xlink:href="#m630b1ef48e" x="189.684601" y="229.761617" style="fill: #008000; stroke: #008000"/>
     <use xlink:href="#m630b1ef48e" x="198.233766" y="229.114121" style="fill: #008000; stroke: #008000"/>
     <use xlink:href="#m630b1ef48e" x="206.782931" y="234.250949" style="fill: #008000; stroke: #008000"/>
     <use xlink:href="#m630b1ef48e" x="215.332096" y="229.282237" style="fill: #008000; stroke: #008000"/>
     <use xlink:href="#m630b1ef48e" x="223.881262" y="233.003433" style="fill: #008000; stroke: #008000"/>
     <use xlink:href="#m630b1ef48e" x="232.430427" y="232.896613" style="fill: #008000; stroke: #008000"/>
     <use xlink:href="#m630b1ef48e" x="240.979592" y="234.533183" style="fill: #008000; stroke: #008000"/>
     <use xlink:href="#m630b1ef48e" x="249.528757" y="236.321716" style="fill: #008000; stroke: #008000"/>
     <use xlink:href="#m630b1ef48e" x="258.077922" y="239.121054" style="fill: #008000; stroke: #008000"/>
     <use xlink:href="#m630b1ef48e" x="266.627087" y="237.329392" style="fill: #008000; stroke: #008000"/>
     <use xlink:href="#m630b1ef48e" x="275.176252" y="233.473915" style="fill: #008000; stroke: #008000"/>
     <use xlink:href="#m630b1ef48e" x="283.725417" y="232.957746" style="fill: #008000; stroke: #008000"/>
     <use xlink:href="#m630b1ef48e" x="292.274583" y="240.93987" style="fill: #008000; stroke: #008000"/>
     <use xlink:href="#m630b1ef48e" x="300.823748" y="238.582172" style="fill: #008000; stroke: #008000"/>
     <use xlink:href="#m630b1ef48e" x="309.372913" y="240.950972" style="fill: #008000; stroke: #008000"/>
     <use xlink:href="#m630b1ef48e" x="317.922078" y="237.306344" style="fill: #008000; stroke: #008000"/>
     <use xlink:href="#m630b1ef48e" x="326.471243" y="236.763667" style="fill: #008000; stroke: #008000"/>
     <use xlink:href="#m630b1ef48e" x="335.020408" y="237.132552" style="fill: #008000; stroke: #008000"/>
     <use xlink:href="#m630b1ef48e" x="343.569573" y="240.516282" style="fill: #008000; stroke: #008000"/>
     <use xlink:href="#m630b1ef48e" x="352.118738" y="238.637765" style="fill: #008000; stroke: #008000"/>
     <use xlink:href="#m630b1ef48e" x="360.667904" y="237.463178" style="fill: #008000; stroke: #008000"/>
     <use xlink:href="#m630b1ef48e" x="369.217069" y="242.967273" style="fill: #008000; stroke: #008000"/>
     <use xlink:href="#m630b1ef48e" x="377.766234" y="241.541846" style="fill: #008000; stroke: #008000"/>
     <use xlink:href="#m630b1ef48e" x="386.315399" y="237.335672" style="fill: #008000; stroke: #008000"/>
     <use xlink:href="#m630b1ef48e" x="394.864564" y="240.631838" style="fill: #008000; stroke: #008000"/>
     <use xlink:href="#m630b1ef48e" x="403.413729" y="242.938174" style="fill: #008000; stroke: #008000"/>
     <use xlink:href="#m630b1ef48e" x="411.962894" y="241.248311" style="fill: #008000; stroke: #008000"/>
     <use xlink:href="#m630b1ef48e" x="420.512059" y="239.33526" style="fill: #008000; stroke: #008000"/>
     <use xlink:href="#m630b1ef48e" x="429.061224" y="241.257129" style="fill: #008000; stroke: #008000"/>
     <use xlink:href="#m630b1ef48e" x="437.61039" y="240.528549" style="fill: #008000; stroke: #008000"/>
     <use xlink:href="#m630b1ef48e" x="446.159555" y="242.364489" style="fill: #008000; stroke: #008000"/>
     <use xlink:href="#m630b1ef48e" x="454.70872" y="241.957756" style="fill: #008000; stroke: #008000"/>
     <use xlink:href="#m630b1ef48e" x="463.257885" y="241.708236" style="fill: #008000; stroke: #008000"/>
     <use xlink:href="#m630b1ef48e" x="471.80705" y="239.353822" style="fill: #008000; stroke: #008000"/>
     <use xlink:href="#m630b1ef48e" x="480.356215" y="242.518624" style="fill: #008000; stroke: #008000"/>
     <use xlink:href="#m630b1ef48e" x="488.90538" y="241.18007" style="fill: #008000; stroke: #008000"/>
     <use xlink:href="#m630b1ef48e" x="497.454545" y="242.925174" style="fill: #008000; stroke: #008000"/>
    </g>
   </g>
   <g id="line2d_16">
    <path d="M 78.545455 139.780567 
L 87.09462 134.490363 
L 95.643785 164.986681 
L 104.19295 168.435064 
L 112.742115 163.644021 
L 121.29128 182.120287 
L 129.840445 189.251696 
L 138.38961 129.410325 
L 146.938776 198.280159 
L 155.487941 196.550674 
L 164.037106 173.394136 
L 172.586271 130.101647 
L 181.135436 177.657589 
L 189.684601 181.248806 
L 198.233766 151.873418 
L 206.782931 199.85473 
L 215.332096 146.576381 
L 223.881262 202.584791 
L 232.430427 185.423896 
L 240.979592 193.47482 
L 249.528757 192.537236 
L 258.077922 183.625344 
L 266.627087 166.840542 
L 275.176252 191.054367 
L 283.725417 191.320834 
L 292.274583 186.366697 
L 300.823748 202.72797 
L 309.372913 168.063403 
L 317.922078 194.250625 
L 326.471243 178.196228 
L 335.020408 188.492288 
L 343.569573 201.168732 
L 352.118738 185.959919 
L 360.667904 187.282293 
L 369.217069 194.740605 
L 377.766234 162.090215 
L 386.315399 190.873863 
L 394.864564 199.691164 
L 403.413729 197.251561 
L 411.962894 161.65723 
L 420.512059 151.217085 
L 429.061224 196.488664 
L 437.61039 190.752991 
L 446.159555 194.26715 
L 454.70872 189.472894 
L 463.257885 190.078598 
L 471.80705 190.201789 
L 480.356215 196.58366 
L 488.90538 191.409758 
L 497.454545 190.488703 
" clip-path="url(#p3e7b0cef02)" style="fill: none; stroke: #ff0000; stroke-width: 1.5; stroke-linecap: round"/>
    <defs>
     <path id="mee951a8f0a" d="M 0 3 
C 0.795609 3 1.55874 2.683901 2.12132 2.12132 
C 2.683901 1.55874 3 0.795609 3 0 
C 3 -0.795609 2.683901 -1.55874 2.12132 -2.12132 
C 1.55874 -2.683901 0.795609 -3 0 -3 
C -0.795609 -3 -1.55874 -2.683901 -2.12132 -2.12132 
C -2.683901 -1.55874 -3 -0.795609 -3 0 
C -3 0.795609 -2.683901 1.55874 -2.12132 2.12132 
C -1.55874 2.683901 -0.795609 3 0 3 
z
" style="stroke: #ff0000"/>
    </defs>
    <g clip-path="url(#p3e7b0cef02)">
     <use xlink:href="#mee951a8f0a" x="78.545455" y="139.780567" style="fill: #ff0000; stroke: #ff0000"/>
     <use xlink:href="#mee951a8f0a" x="87.09462" y="134.490363" style="fill: #ff0000; stroke: #ff0000"/>
     <use xlink:href="#mee951a8f0a" x="95.643785" y="164.986681" style="fill: #ff0000; stroke: #ff0000"/>
     <use xlink:href="#mee951a8f0a" x="104.19295" y="168.435064" style="fill: #ff0000; stroke: #ff0000"/>
     <use xlink:href="#mee951a8f0a" x="112.742115" y="163.644021" style="fill: #ff0000; stroke: #ff0000"/>
     <use xlink:href="#mee951a8f0a" x="121.29128" y="182.120287" style="fill: #ff0000; stroke: #ff0000"/>
     <use xlink:href="#mee951a8f0a" x="129.840445" y="189.251696" style="fill: #ff0000; stroke: #ff0000"/>
     <use xlink:href="#mee951a8f0a" x="138.38961" y="129.410325" style="fill: #ff0000; stroke: #ff0000"/>
     <use xlink:href="#mee951a8f0a" x="146.938776" y="198.280159" style="fill: #ff0000; stroke: #ff0000"/>
     <use xlink:href="#mee951a8f0a" x="155.487941" y="196.550674" style="fill: #ff0000; stroke: #ff0000"/>
     <use xlink:href="#mee951a8f0a" x="164.037106" y="173.394136" style="fill: #ff0000; stroke: #ff0000"/>
     <use xlink:href="#mee951a8f0a" x="172.586271" y="130.101647" style="fill: #ff0000; stroke: #ff0000"/>
     <use xlink:href="#mee951a8f0a" x="181.135436" y="177.657589" style="fill: #ff0000; stroke: #ff0000"/>
     <use xlink:href="#mee951a8f0a" x="189.684601" y="181.248806" style="fill: #ff0000; stroke: #ff0000"/>
     <use xlink:href="#mee951a8f0a" x="198.233766" y="151.873418" style="fill: #ff0000; stroke: #ff0000"/>
     <use xlink:href="#mee951a8f0a" x="206.782931" y="199.85473" style="fill: #ff0000; stroke: #ff0000"/>
     <use xlink:href="#mee951a8f0a" x="215.332096" y="146.576381" style="fill: #ff0000; stroke: #ff0000"/>
     <use xlink:href="#mee951a8f0a" x="223.881262" y="202.584791" style="fill: #ff0000; stroke: #ff0000"/>
     <use xlink:href="#mee951a8f0a" x="232.430427" y="185.423896" style="fill: #ff0000; stroke: #ff0000"/>
     <use xlink:href="#mee951a8f0a" x="240.979592" y="193.47482" style="fill: #ff0000; stroke: #ff0000"/>
     <use xlink:href="#mee951a8f0a" x="249.528757" y="192.537236" style="fill: #ff0000; stroke: #ff0000"/>
     <use xlink:href="#mee951a8f0a" x="258.077922" y="183.625344" style="fill: #ff0000; stroke: #ff0000"/>
     <use xlink:href="#mee951a8f0a" x="266.627087" y="166.840542" style="fill: #ff0000; stroke: #ff0000"/>
     <use xlink:href="#mee951a8f0a" x="275.176252" y="191.054367" style="fill: #ff0000; stroke: #ff0000"/>
     <use xlink:href="#mee951a8f0a" x="283.725417" y="191.320834" style="fill: #ff0000; stroke: #ff0000"/>
     <use xlink:href="#mee951a8f0a" x="292.274583" y="186.366697" style="fill: #ff0000; stroke: #ff0000"/>
     <use xlink:href="#mee951a8f0a" x="300.823748" y="202.72797" style="fill: #ff0000; stroke: #ff0000"/>
     <use xlink:href="#mee951a8f0a" x="309.372913" y="168.063403" style="fill: #ff0000; stroke: #ff0000"/>
     <use xlink:href="#mee951a8f0a" x="317.922078" y="194.250625" style="fill: #ff0000; stroke: #ff0000"/>
     <use xlink:href="#mee951a8f0a" x="326.471243" y="178.196228" style="fill: #ff0000; stroke: #ff0000"/>
     <use xlink:href="#mee951a8f0a" x="335.020408" y="188.492288" style="fill: #ff0000; stroke: #ff0000"/>
     <use xlink:href="#mee951a8f0a" x="343.569573" y="201.168732" style="fill: #ff0000; stroke: #ff0000"/>
     <use xlink:href="#mee951a8f0a" x="352.118738" y="185.959919" style="fill: #ff0000; stroke: #ff0000"/>
     <use xlink:href="#mee951a8f0a" x="360.667904" y="187.282293" style="fill: #ff0000; stroke: #ff0000"/>
     <use xlink:href="#mee951a8f0a" x="369.217069" y="194.740605" style="fill: #ff0000; stroke: #ff0000"/>
     <use xlink:href="#mee951a8f0a" x="377.766234" y="162.090215" style="fill: #ff0000; stroke: #ff0000"/>
     <use xlink:href="#mee951a8f0a" x="386.315399" y="190.873863" style="fill: #ff0000; stroke: #ff0000"/>
     <use xlink:href="#mee951a8f0a" x="394.864564" y="199.691164" style="fill: #ff0000; stroke: #ff0000"/>
     <use xlink:href="#mee951a8f0a" x="403.413729" y="197.251561" style="fill: #ff0000; stroke: #ff0000"/>
     <use xlink:href="#mee951a8f0a" x="411.962894" y="161.65723" style="fill: #ff0000; stroke: #ff0000"/>
     <use xlink:href="#mee951a8f0a" x="420.512059" y="151.217085" style="fill: #ff0000; stroke: #ff0000"/>
     <use xlink:href="#mee951a8f0a" x="429.061224" y="196.488664" style="fill: #ff0000; stroke: #ff0000"/>
     <use xlink:href="#mee951a8f0a" x="437.61039" y="190.752991" style="fill: #ff0000; stroke: #ff0000"/>
     <use xlink:href="#mee951a8f0a" x="446.159555" y="194.26715" style="fill: #ff0000; stroke: #ff0000"/>
     <use xlink:href="#mee951a8f0a" x="454.70872" y="189.472894" style="fill: #ff0000; stroke: #ff0000"/>
     <use xlink:href="#mee951a8f0a" x="463.257885" y="190.078598" style="fill: #ff0000; stroke: #ff0000"/>
     <use xlink:href="#mee951a8f0a" x="471.80705" y="190.201789" style="fill: #ff0000; stroke: #ff0000"/>
     <use xlink:href="#mee951a8f0a" x="480.356215" y="196.58366" style="fill: #ff0000; stroke: #ff0000"/>
     <use xlink:href="#mee951a8f0a" x="488.90538" y="191.409758" style="fill: #ff0000; stroke: #ff0000"/>
     <use xlink:href="#mee951a8f0a" x="497.454545" y="190.488703" style="fill: #ff0000; stroke: #ff0000"/>
    </g>
   </g>
   <g id="patch_3">
    <path d="M 57.6 253.44 
L 57.6 23.04 
" style="fill: none; stroke: #ffffff; stroke-width: 1.25; stroke-linejoin: miter; stroke-linecap: square"/>
   </g>
   <g id="patch_4">
    <path d="M 518.4 253.44 
L 518.4 23.04 
" style="fill: none; stroke: #ffffff; stroke-width: 1.25; stroke-linejoin: miter; stroke-linecap: square"/>
   </g>
   <g id="patch_5">
    <path d="M 57.6 253.44 
L 518.4 253.44 
" style="fill: none; stroke: #ffffff; stroke-width: 1.25; stroke-linejoin: miter; stroke-linecap: square"/>
   </g>
   <g id="patch_6">
    <path d="M 57.6 23.04 
L 518.4 23.04 
" style="fill: none; stroke: #ffffff; stroke-width: 1.25; stroke-linejoin: miter; stroke-linecap: square"/>
   </g>
   <g id="text_17">
    <!-- Model Loss -->
    <g style="fill: #262626" transform="translate(257.319375 17.04) scale(0.12 -0.12)">
     <defs>
      <path id="ArialMT-4d" d="M 475 0 
L 475 4581 
L 1388 4581 
L 2472 1338 
Q 2622 884 2691 659 
Q 2769 909 2934 1394 
L 4031 4581 
L 4847 4581 
L 4847 0 
L 4263 0 
L 4263 3834 
L 2931 0 
L 2384 0 
L 1059 3900 
L 1059 0 
L 475 0 
z
" transform="scale(0.015625)"/>
      <path id="ArialMT-64" d="M 2575 0 
L 2575 419 
Q 2259 -75 1647 -75 
Q 1250 -75 917 144 
Q 584 363 401 755 
Q 219 1147 219 1656 
Q 219 2153 384 2558 
Q 550 2963 881 3178 
Q 1213 3394 1622 3394 
Q 1922 3394 2156 3267 
Q 2391 3141 2538 2938 
L 2538 4581 
L 3097 4581 
L 3097 0 
L 2575 0 
z
M 797 1656 
Q 797 1019 1065 703 
Q 1334 388 1700 388 
Q 2069 388 2326 689 
Q 2584 991 2584 1609 
Q 2584 2291 2321 2609 
Q 2059 2928 1675 2928 
Q 1300 2928 1048 2622 
Q 797 2316 797 1656 
z
" transform="scale(0.015625)"/>
      <path id="ArialMT-65" d="M 2694 1069 
L 3275 997 
Q 3138 488 2766 206 
Q 2394 -75 1816 -75 
Q 1088 -75 661 373 
Q 234 822 234 1631 
Q 234 2469 665 2931 
Q 1097 3394 1784 3394 
Q 2450 3394 2872 2941 
Q 3294 2488 3294 1666 
Q 3294 1616 3291 1516 
L 816 1516 
Q 847 969 1125 678 
Q 1403 388 1819 388 
Q 2128 388 2347 550 
Q 2566 713 2694 1069 
z
M 847 1978 
L 2700 1978 
Q 2663 2397 2488 2606 
Q 2219 2931 1791 2931 
Q 1403 2931 1139 2672 
Q 875 2413 847 1978 
z
" transform="scale(0.015625)"/>
      <path id="ArialMT-6c" d="M 409 0 
L 409 4581 
L 972 4581 
L 972 0 
L 409 0 
z
" transform="scale(0.015625)"/>
      <path id="ArialMT-20" transform="scale(0.015625)"/>
     </defs>
     <use xlink:href="#ArialMT-4d"/>
     <use xlink:href="#ArialMT-6f" x="83.300781"/>
     <use xlink:href="#ArialMT-64" x="138.916016"/>
     <use xlink:href="#ArialMT-65" x="194.53125"/>
     <use xlink:href="#ArialMT-6c" x="250.146484"/>
     <use xlink:href="#ArialMT-20" x="272.363281"/>
     <use xlink:href="#ArialMT-4c" x="300.146484"/>
     <use xlink:href="#ArialMT-6f" x="355.761719"/>
     <use xlink:href="#ArialMT-73" x="411.376953"/>
     <use xlink:href="#ArialMT-73" x="461.376953"/>
    </g>
   </g>
   <g id="legend_1">
    <g id="patch_7">
     <path d="M 428.000625 62.959687 
L 510.7 62.959687 
Q 512.9 62.959687 512.9 60.759687 
L 512.9 30.74 
Q 512.9 28.54 510.7 28.54 
L 428.000625 28.54 
Q 425.800625 28.54 425.800625 30.74 
L 425.800625 60.759687 
Q 425.800625 62.959687 428.000625 62.959687 
z
" style="fill: #eaeaf2; opacity: 0.8; stroke: #cccccc; stroke-linejoin: miter"/>
    </g>
    <g id="line2d_17">
     <path d="M 430.200625 36.963594 
L 441.200625 36.963594 
L 452.200625 36.963594 
" style="fill: none; stroke: #008000; stroke-width: 1.5; stroke-linecap: round"/>
     <g>
      <use xlink:href="#m630b1ef48e" x="441.200625" y="36.963594" style="fill: #008000; stroke: #008000"/>
     </g>
    </g>
    <g id="text_18">
     <!-- Train -->
     <g style="fill: #262626" transform="translate(461.000625 40.813594) scale(0.11 -0.11)">
      <defs>
       <path id="ArialMT-54" d="M 1659 0 
L 1659 4041 
L 150 4041 
L 150 4581 
L 3781 4581 
L 3781 4041 
L 2266 4041 
L 2266 0 
L 1659 0 
z
" transform="scale(0.015625)"/>
       <path id="ArialMT-72" d="M 416 0 
L 416 3319 
L 922 3319 
L 922 2816 
Q 1116 3169 1280 3281 
Q 1444 3394 1641 3394 
Q 1925 3394 2219 3213 
L 2025 2691 
Q 1819 2813 1613 2813 
Q 1428 2813 1281 2702 
Q 1134 2591 1072 2394 
Q 978 2094 978 1738 
L 978 0 
L 416 0 
z
" transform="scale(0.015625)"/>
       <path id="ArialMT-61" d="M 2588 409 
Q 2275 144 1986 34 
Q 1697 -75 1366 -75 
Q 819 -75 525 192 
Q 231 459 231 875 
Q 231 1119 342 1320 
Q 453 1522 633 1644 
Q 813 1766 1038 1828 
Q 1203 1872 1538 1913 
Q 2219 1994 2541 2106 
Q 2544 2222 2544 2253 
Q 2544 2597 2384 2738 
Q 2169 2928 1744 2928 
Q 1347 2928 1158 2789 
Q 969 2650 878 2297 
L 328 2372 
Q 403 2725 575 2942 
Q 747 3159 1072 3276 
Q 1397 3394 1825 3394 
Q 2250 3394 2515 3294 
Q 2781 3194 2906 3042 
Q 3031 2891 3081 2659 
Q 3109 2516 3109 2141 
L 3109 1391 
Q 3109 606 3145 398 
Q 3181 191 3288 0 
L 2700 0 
Q 2613 175 2588 409 
z
M 2541 1666 
Q 2234 1541 1622 1453 
Q 1275 1403 1131 1340 
Q 988 1278 909 1158 
Q 831 1038 831 891 
Q 831 666 1001 516 
Q 1172 366 1500 366 
Q 1825 366 2078 508 
Q 2331 650 2450 897 
Q 2541 1088 2541 1459 
L 2541 1666 
z
" transform="scale(0.015625)"/>
       <path id="ArialMT-69" d="M 425 3934 
L 425 4581 
L 988 4581 
L 988 3934 
L 425 3934 
z
M 425 0 
L 425 3319 
L 988 3319 
L 988 0 
L 425 0 
z
" transform="scale(0.015625)"/>
       <path id="ArialMT-6e" d="M 422 0 
L 422 3319 
L 928 3319 
L 928 2847 
Q 1294 3394 1984 3394 
Q 2284 3394 2536 3286 
Q 2788 3178 2913 3003 
Q 3038 2828 3088 2588 
Q 3119 2431 3119 2041 
L 3119 0 
L 2556 0 
L 2556 2019 
Q 2556 2363 2490 2533 
Q 2425 2703 2258 2804 
Q 2091 2906 1866 2906 
Q 1506 2906 1245 2678 
Q 984 2450 984 1813 
L 984 0 
L 422 0 
z
" transform="scale(0.015625)"/>
      </defs>
      <use xlink:href="#ArialMT-54"/>
      <use xlink:href="#ArialMT-72" x="57.333984"/>
      <use xlink:href="#ArialMT-61" x="90.634766"/>
      <use xlink:href="#ArialMT-69" x="146.25"/>
      <use xlink:href="#ArialMT-6e" x="168.466797"/>
     </g>
    </g>
    <g id="line2d_18">
     <path d="M 430.200625 52.523437 
L 441.200625 52.523437 
L 452.200625 52.523437 
" style="fill: none; stroke: #ff0000; stroke-width: 1.5; stroke-linecap: round"/>
     <g>
      <use xlink:href="#mee951a8f0a" x="441.200625" y="52.523437" style="fill: #ff0000; stroke: #ff0000"/>
     </g>
    </g>
    <g id="text_19">
     <!-- Validation -->
     <g style="fill: #262626" transform="translate(461.000625 56.373437) scale(0.11 -0.11)">
      <defs>
       <path id="ArialMT-56" d="M 1803 0 
L 28 4581 
L 684 4581 
L 1875 1253 
Q 2019 853 2116 503 
Q 2222 878 2363 1253 
L 3600 4581 
L 4219 4581 
L 2425 0 
L 1803 0 
z
" transform="scale(0.015625)"/>
       <path id="ArialMT-74" d="M 1650 503 
L 1731 6 
Q 1494 -44 1306 -44 
Q 1000 -44 831 53 
Q 663 150 594 308 
Q 525 466 525 972 
L 525 2881 
L 113 2881 
L 113 3319 
L 525 3319 
L 525 4141 
L 1084 4478 
L 1084 3319 
L 1650 3319 
L 1650 2881 
L 1084 2881 
L 1084 941 
Q 1084 700 1114 631 
Q 1144 563 1211 522 
Q 1278 481 1403 481 
Q 1497 481 1650 503 
z
" transform="scale(0.015625)"/>
      </defs>
      <use xlink:href="#ArialMT-56"/>
      <use xlink:href="#ArialMT-61" x="59.324219"/>
      <use xlink:href="#ArialMT-6c" x="114.939453"/>
      <use xlink:href="#ArialMT-69" x="137.15625"/>
      <use xlink:href="#ArialMT-64" x="159.373047"/>
      <use xlink:href="#ArialMT-61" x="214.988281"/>
      <use xlink:href="#ArialMT-74" x="270.603516"/>
      <use xlink:href="#ArialMT-69" x="298.386719"/>
      <use xlink:href="#ArialMT-6f" x="320.603516"/>
      <use xlink:href="#ArialMT-6e" x="376.21875"/>
     </g>
    </g>
   </g>
  </g>
 </g>
 <defs>
  <clipPath id="p3e7b0cef02">
   <rect x="57.6" y="23.04" width="460.8" height="230.4"/>
  </clipPath>
 </defs>
</svg>
