<?xml version="1.0" encoding="utf-8" standalone="no"?>
<!DOCTYPE svg PUBLIC "-//W3C//DTD SVG 1.1//EN"
  "http://www.w3.org/Graphics/SVG/1.1/DTD/svg11.dtd">
<svg xmlns:xlink="http://www.w3.org/1999/xlink" width="576pt" height="288pt" viewBox="0 0 576 288" xmlns="http://www.w3.org/2000/svg" version="1.1">
 <metadata>
  <rdf:RDF xmlns:dc="http://purl.org/dc/elements/1.1/" xmlns:cc="http://creativecommons.org/ns#" xmlns:rdf="http://www.w3.org/1999/02/22-rdf-syntax-ns#">
   <cc:Work>
    <dc:type rdf:resource="http://purl.org/dc/dcmitype/StillImage"/>
    <dc:date>2023-05-13T00:27:56.825969</dc:date>
    <dc:format>image/svg+xml</dc:format>
    <dc:creator>
     <cc:Agent>
      <dc:title>Matplotlib v3.7.0, https://matplotlib.org/</dc:title>
     </cc:Agent>
    </dc:creator>
   </cc:Work>
  </rdf:RDF>
 </metadata>
 <defs>
  <style type="text/css">*{stroke-linejoin: round; stroke-linecap: butt}</style>
 </defs>
 <g id="figure_1">
  <g id="patch_1">
   <path d="M 0 288 
L 576 288 
L 576 0 
L 0 0 
z
" style="fill: #ffffff"/>
  </g>
  <g id="axes_1">
   <g id="patch_2">
    <path d="M 57.6 253.44 
L 518.4 253.44 
L 518.4 23.04 
L 57.6 23.04 
z
" style="fill: #eaeaf2"/>
   </g>
   <g id="matplotlib.axis_1">
    <g id="xtick_1">
     <g id="line2d_1">
      <path d="M 78.545455 253.44 
L 78.545455 23.04 
" clip-path="url(#pd79ca090be)" style="fill: none; stroke: #ffffff; stroke-linecap: round"/>
     </g>
     <g id="text_1">
      <!-- 0 -->
      <g style="fill: #262626" transform="translate(75.486939 270.813594) scale(0.11 -0.11)">
       <defs>
        <path id="ArialMT-30" d="M 266 2259 
Q 266 3072 433 3567 
Q 600 4063 929 4331 
Q 1259 4600 1759 4600 
Q 2128 4600 2406 4451 
Q 2684 4303 2865 4023 
Q 3047 3744 3150 3342 
Q 3253 2941 3253 2259 
Q 3253 1453 3087 958 
Q 2922 463 2592 192 
Q 2263 -78 1759 -78 
Q 1097 -78 719 397 
Q 266 969 266 2259 
z
M 844 2259 
Q 844 1131 1108 757 
Q 1372 384 1759 384 
Q 2147 384 2411 759 
Q 2675 1134 2675 2259 
Q 2675 3391 2411 3762 
Q 2147 4134 1753 4134 
Q 1366 4134 1134 3806 
Q 844 3388 844 2259 
z
" transform="scale(0.015625)"/>
       </defs>
       <use xlink:href="#ArialMT-30"/>
      </g>
     </g>
    </g>
    <g id="xtick_2">
     <g id="line2d_2">
      <path d="M 164.037106 253.44 
L 164.037106 23.04 
" clip-path="url(#pd79ca090be)" style="fill: none; stroke: #ffffff; stroke-linecap: round"/>
     </g>
     <g id="text_2">
      <!-- 10 -->
      <g style="fill: #262626" transform="translate(157.920075 270.813594) scale(0.11 -0.11)">
       <defs>
        <path id="ArialMT-31" d="M 2384 0 
L 1822 0 
L 1822 3584 
Q 1619 3391 1289 3197 
Q 959 3003 697 2906 
L 697 3450 
Q 1169 3672 1522 3987 
Q 1875 4303 2022 4600 
L 2384 4600 
L 2384 0 
z
" transform="scale(0.015625)"/>
       </defs>
       <use xlink:href="#ArialMT-31"/>
       <use xlink:href="#ArialMT-30" x="55.615234"/>
      </g>
     </g>
    </g>
    <g id="xtick_3">
     <g id="line2d_3">
      <path d="M 249.528757 253.44 
L 249.528757 23.04 
" clip-path="url(#pd79ca090be)" style="fill: none; stroke: #ffffff; stroke-linecap: round"/>
     </g>
     <g id="text_3">
      <!-- 20 -->
      <g style="fill: #262626" transform="translate(243.411726 270.813594) scale(0.11 -0.11)">
       <defs>
        <path id="ArialMT-32" d="M 3222 541 
L 3222 0 
L 194 0 
Q 188 203 259 391 
Q 375 700 629 1000 
Q 884 1300 1366 1694 
Q 2113 2306 2375 2664 
Q 2638 3022 2638 3341 
Q 2638 3675 2398 3904 
Q 2159 4134 1775 4134 
Q 1369 4134 1125 3890 
Q 881 3647 878 3216 
L 300 3275 
Q 359 3922 746 4261 
Q 1134 4600 1788 4600 
Q 2447 4600 2831 4234 
Q 3216 3869 3216 3328 
Q 3216 3053 3103 2787 
Q 2991 2522 2730 2228 
Q 2469 1934 1863 1422 
Q 1356 997 1212 845 
Q 1069 694 975 541 
L 3222 541 
z
" transform="scale(0.015625)"/>
       </defs>
       <use xlink:href="#ArialMT-32"/>
       <use xlink:href="#ArialMT-30" x="55.615234"/>
      </g>
     </g>
    </g>
    <g id="xtick_4">
     <g id="line2d_4">
      <path d="M 335.020408 253.44 
L 335.020408 23.04 
" clip-path="url(#pd79ca090be)" style="fill: none; stroke: #ffffff; stroke-linecap: round"/>
     </g>
     <g id="text_4">
      <!-- 30 -->
      <g style="fill: #262626" transform="translate(328.903377 270.813594) scale(0.11 -0.11)">
       <defs>
        <path id="ArialMT-33" d="M 269 1209 
L 831 1284 
Q 928 806 1161 595 
Q 1394 384 1728 384 
Q 2125 384 2398 659 
Q 2672 934 2672 1341 
Q 2672 1728 2419 1979 
Q 2166 2231 1775 2231 
Q 1616 2231 1378 2169 
L 1441 2663 
Q 1497 2656 1531 2656 
Q 1891 2656 2178 2843 
Q 2466 3031 2466 3422 
Q 2466 3731 2256 3934 
Q 2047 4138 1716 4138 
Q 1388 4138 1169 3931 
Q 950 3725 888 3313 
L 325 3413 
Q 428 3978 793 4289 
Q 1159 4600 1703 4600 
Q 2078 4600 2393 4439 
Q 2709 4278 2876 4000 
Q 3044 3722 3044 3409 
Q 3044 3113 2884 2869 
Q 2725 2625 2413 2481 
Q 2819 2388 3044 2092 
Q 3269 1797 3269 1353 
Q 3269 753 2831 336 
Q 2394 -81 1725 -81 
Q 1122 -81 723 278 
Q 325 638 269 1209 
z
" transform="scale(0.015625)"/>
       </defs>
       <use xlink:href="#ArialMT-33"/>
       <use xlink:href="#ArialMT-30" x="55.615234"/>
      </g>
     </g>
    </g>
    <g id="xtick_5">
     <g id="line2d_5">
      <path d="M 420.512059 253.44 
L 420.512059 23.04 
" clip-path="url(#pd79ca090be)" style="fill: none; stroke: #ffffff; stroke-linecap: round"/>
     </g>
     <g id="text_5">
      <!-- 40 -->
      <g style="fill: #262626" transform="translate(414.395028 270.813594) scale(0.11 -0.11)">
       <defs>
        <path id="ArialMT-34" d="M 2069 0 
L 2069 1097 
L 81 1097 
L 81 1613 
L 2172 4581 
L 2631 4581 
L 2631 1613 
L 3250 1613 
L 3250 1097 
L 2631 1097 
L 2631 0 
L 2069 0 
z
M 2069 1613 
L 2069 3678 
L 634 1613 
L 2069 1613 
z
" transform="scale(0.015625)"/>
       </defs>
       <use xlink:href="#ArialMT-34"/>
       <use xlink:href="#ArialMT-30" x="55.615234"/>
      </g>
     </g>
    </g>
    <g id="xtick_6">
     <g id="line2d_6">
      <path d="M 506.003711 253.44 
L 506.003711 23.04 
" clip-path="url(#pd79ca090be)" style="fill: none; stroke: #ffffff; stroke-linecap: round"/>
     </g>
     <g id="text_6">
      <!-- 50 -->
      <g style="fill: #262626" transform="translate(499.886679 270.813594) scale(0.11 -0.11)">
       <defs>
        <path id="ArialMT-35" d="M 266 1200 
L 856 1250 
Q 922 819 1161 601 
Q 1400 384 1738 384 
Q 2144 384 2425 690 
Q 2706 997 2706 1503 
Q 2706 1984 2436 2262 
Q 2166 2541 1728 2541 
Q 1456 2541 1237 2417 
Q 1019 2294 894 2097 
L 366 2166 
L 809 4519 
L 3088 4519 
L 3088 3981 
L 1259 3981 
L 1013 2750 
Q 1425 3038 1878 3038 
Q 2478 3038 2890 2622 
Q 3303 2206 3303 1553 
Q 3303 931 2941 478 
Q 2500 -78 1738 -78 
Q 1113 -78 717 272 
Q 322 622 266 1200 
z
" transform="scale(0.015625)"/>
       </defs>
       <use xlink:href="#ArialMT-35"/>
       <use xlink:href="#ArialMT-30" x="55.615234"/>
      </g>
     </g>
    </g>
    <g id="text_7">
     <!-- Epoch -->
     <g style="fill: #262626" transform="translate(270.988125 285.589219) scale(0.12 -0.12)">
      <defs>
       <path id="ArialMT-45" d="M 506 0 
L 506 4581 
L 3819 4581 
L 3819 4041 
L 1113 4041 
L 1113 2638 
L 3647 2638 
L 3647 2100 
L 1113 2100 
L 1113 541 
L 3925 541 
L 3925 0 
L 506 0 
z
" transform="scale(0.015625)"/>
       <path id="ArialMT-70" d="M 422 -1272 
L 422 3319 
L 934 3319 
L 934 2888 
Q 1116 3141 1344 3267 
Q 1572 3394 1897 3394 
Q 2322 3394 2647 3175 
Q 2972 2956 3137 2557 
Q 3303 2159 3303 1684 
Q 3303 1175 3120 767 
Q 2938 359 2589 142 
Q 2241 -75 1856 -75 
Q 1575 -75 1351 44 
Q 1128 163 984 344 
L 984 -1272 
L 422 -1272 
z
M 931 1641 
Q 931 1000 1190 694 
Q 1450 388 1819 388 
Q 2194 388 2461 705 
Q 2728 1022 2728 1688 
Q 2728 2322 2467 2637 
Q 2206 2953 1844 2953 
Q 1484 2953 1207 2617 
Q 931 2281 931 1641 
z
" transform="scale(0.015625)"/>
       <path id="ArialMT-6f" d="M 213 1659 
Q 213 2581 725 3025 
Q 1153 3394 1769 3394 
Q 2453 3394 2887 2945 
Q 3322 2497 3322 1706 
Q 3322 1066 3130 698 
Q 2938 331 2570 128 
Q 2203 -75 1769 -75 
Q 1072 -75 642 372 
Q 213 819 213 1659 
z
M 791 1659 
Q 791 1022 1069 705 
Q 1347 388 1769 388 
Q 2188 388 2466 706 
Q 2744 1025 2744 1678 
Q 2744 2294 2464 2611 
Q 2184 2928 1769 2928 
Q 1347 2928 1069 2612 
Q 791 2297 791 1659 
z
" transform="scale(0.015625)"/>
       <path id="ArialMT-63" d="M 2588 1216 
L 3141 1144 
Q 3050 572 2676 248 
Q 2303 -75 1759 -75 
Q 1078 -75 664 370 
Q 250 816 250 1647 
Q 250 2184 428 2587 
Q 606 2991 970 3192 
Q 1334 3394 1763 3394 
Q 2303 3394 2647 3120 
Q 2991 2847 3088 2344 
L 2541 2259 
Q 2463 2594 2264 2762 
Q 2066 2931 1784 2931 
Q 1359 2931 1093 2626 
Q 828 2322 828 1663 
Q 828 994 1084 691 
Q 1341 388 1753 388 
Q 2084 388 2306 591 
Q 2528 794 2588 1216 
z
" transform="scale(0.015625)"/>
       <path id="ArialMT-68" d="M 422 0 
L 422 4581 
L 984 4581 
L 984 2938 
Q 1378 3394 1978 3394 
Q 2347 3394 2619 3248 
Q 2891 3103 3008 2847 
Q 3125 2591 3125 2103 
L 3125 0 
L 2563 0 
L 2563 2103 
Q 2563 2525 2380 2717 
Q 2197 2909 1863 2909 
Q 1613 2909 1392 2779 
Q 1172 2650 1078 2428 
Q 984 2206 984 1816 
L 984 0 
L 422 0 
z
" transform="scale(0.015625)"/>
      </defs>
      <use xlink:href="#ArialMT-45"/>
      <use xlink:href="#ArialMT-70" x="66.699219"/>
      <use xlink:href="#ArialMT-6f" x="122.314453"/>
      <use xlink:href="#ArialMT-63" x="177.929688"/>
      <use xlink:href="#ArialMT-68" x="227.929688"/>
     </g>
    </g>
   </g>
   <g id="matplotlib.axis_2">
    <g id="ytick_1">
     <g id="line2d_7">
      <path d="M 57.6 251.522491 
L 518.4 251.522491 
" clip-path="url(#pd79ca090be)" style="fill: none; stroke: #ffffff; stroke-linecap: round"/>
     </g>
     <g id="text_8">
      <!-- 0.88 -->
      <g style="fill: #262626" transform="translate(26.692969 255.459288) scale(0.11 -0.11)">
       <defs>
        <path id="ArialMT-2e" d="M 581 0 
L 581 641 
L 1222 641 
L 1222 0 
L 581 0 
z
" transform="scale(0.015625)"/>
        <path id="ArialMT-38" d="M 1131 2484 
Q 781 2613 612 2850 
Q 444 3088 444 3419 
Q 444 3919 803 4259 
Q 1163 4600 1759 4600 
Q 2359 4600 2725 4251 
Q 3091 3903 3091 3403 
Q 3091 3084 2923 2848 
Q 2756 2613 2416 2484 
Q 2838 2347 3058 2040 
Q 3278 1734 3278 1309 
Q 3278 722 2862 322 
Q 2447 -78 1769 -78 
Q 1091 -78 675 323 
Q 259 725 259 1325 
Q 259 1772 486 2073 
Q 713 2375 1131 2484 
z
M 1019 3438 
Q 1019 3113 1228 2906 
Q 1438 2700 1772 2700 
Q 2097 2700 2305 2904 
Q 2513 3109 2513 3406 
Q 2513 3716 2298 3927 
Q 2084 4138 1766 4138 
Q 1444 4138 1231 3931 
Q 1019 3725 1019 3438 
z
M 838 1322 
Q 838 1081 952 856 
Q 1066 631 1291 507 
Q 1516 384 1775 384 
Q 2178 384 2440 643 
Q 2703 903 2703 1303 
Q 2703 1709 2433 1975 
Q 2163 2241 1756 2241 
Q 1359 2241 1098 1978 
Q 838 1716 838 1322 
z
" transform="scale(0.015625)"/>
       </defs>
       <use xlink:href="#ArialMT-30"/>
       <use xlink:href="#ArialMT-2e" x="55.615234"/>
       <use xlink:href="#ArialMT-38" x="83.398438"/>
       <use xlink:href="#ArialMT-38" x="139.013672"/>
      </g>
     </g>
    </g>
    <g id="ytick_2">
     <g id="line2d_8">
      <path d="M 57.6 214.799223 
L 518.4 214.799223 
" clip-path="url(#pd79ca090be)" style="fill: none; stroke: #ffffff; stroke-linecap: round"/>
     </g>
     <g id="text_9">
      <!-- 0.90 -->
      <g style="fill: #262626" transform="translate(26.692969 218.73602) scale(0.11 -0.11)">
       <defs>
        <path id="ArialMT-39" d="M 350 1059 
L 891 1109 
Q 959 728 1153 556 
Q 1347 384 1650 384 
Q 1909 384 2104 503 
Q 2300 622 2425 820 
Q 2550 1019 2634 1356 
Q 2719 1694 2719 2044 
Q 2719 2081 2716 2156 
Q 2547 1888 2255 1720 
Q 1963 1553 1622 1553 
Q 1053 1553 659 1965 
Q 266 2378 266 3053 
Q 266 3750 677 4175 
Q 1088 4600 1706 4600 
Q 2153 4600 2523 4359 
Q 2894 4119 3086 3673 
Q 3278 3228 3278 2384 
Q 3278 1506 3087 986 
Q 2897 466 2520 194 
Q 2144 -78 1638 -78 
Q 1100 -78 759 220 
Q 419 519 350 1059 
z
M 2653 3081 
Q 2653 3566 2395 3850 
Q 2138 4134 1775 4134 
Q 1400 4134 1122 3828 
Q 844 3522 844 3034 
Q 844 2597 1108 2323 
Q 1372 2050 1759 2050 
Q 2150 2050 2401 2323 
Q 2653 2597 2653 3081 
z
" transform="scale(0.015625)"/>
       </defs>
       <use xlink:href="#ArialMT-30"/>
       <use xlink:href="#ArialMT-2e" x="55.615234"/>
       <use xlink:href="#ArialMT-39" x="83.398438"/>
       <use xlink:href="#ArialMT-30" x="139.013672"/>
      </g>
     </g>
    </g>
    <g id="ytick_3">
     <g id="line2d_9">
      <path d="M 57.6 178.075956 
L 518.4 178.075956 
" clip-path="url(#pd79ca090be)" style="fill: none; stroke: #ffffff; stroke-linecap: round"/>
     </g>
     <g id="text_10">
      <!-- 0.92 -->
      <g style="fill: #262626" transform="translate(26.692969 182.012753) scale(0.11 -0.11)">
       <use xlink:href="#ArialMT-30"/>
       <use xlink:href="#ArialMT-2e" x="55.615234"/>
       <use xlink:href="#ArialMT-39" x="83.398438"/>
       <use xlink:href="#ArialMT-32" x="139.013672"/>
      </g>
     </g>
    </g>
    <g id="ytick_4">
     <g id="line2d_10">
      <path d="M 57.6 141.352689 
L 518.4 141.352689 
" clip-path="url(#pd79ca090be)" style="fill: none; stroke: #ffffff; stroke-linecap: round"/>
     </g>
     <g id="text_11">
      <!-- 0.94 -->
      <g style="fill: #262626" transform="translate(26.692969 145.289485) scale(0.11 -0.11)">
       <use xlink:href="#ArialMT-30"/>
       <use xlink:href="#ArialMT-2e" x="55.615234"/>
       <use xlink:href="#ArialMT-39" x="83.398438"/>
       <use xlink:href="#ArialMT-34" x="139.013672"/>
      </g>
     </g>
    </g>
    <g id="ytick_5">
     <g id="line2d_11">
      <path d="M 57.6 104.629421 
L 518.4 104.629421 
" clip-path="url(#pd79ca090be)" style="fill: none; stroke: #ffffff; stroke-linecap: round"/>
     </g>
     <g id="text_12">
      <!-- 0.96 -->
      <g style="fill: #262626" transform="translate(26.692969 108.566218) scale(0.11 -0.11)">
       <defs>
        <path id="ArialMT-36" d="M 3184 3459 
L 2625 3416 
Q 2550 3747 2413 3897 
Q 2184 4138 1850 4138 
Q 1581 4138 1378 3988 
Q 1113 3794 959 3422 
Q 806 3050 800 2363 
Q 1003 2672 1297 2822 
Q 1591 2972 1913 2972 
Q 2475 2972 2870 2558 
Q 3266 2144 3266 1488 
Q 3266 1056 3080 686 
Q 2894 316 2569 119 
Q 2244 -78 1831 -78 
Q 1128 -78 684 439 
Q 241 956 241 2144 
Q 241 3472 731 4075 
Q 1159 4600 1884 4600 
Q 2425 4600 2770 4297 
Q 3116 3994 3184 3459 
z
M 888 1484 
Q 888 1194 1011 928 
Q 1134 663 1356 523 
Q 1578 384 1822 384 
Q 2178 384 2434 671 
Q 2691 959 2691 1453 
Q 2691 1928 2437 2201 
Q 2184 2475 1800 2475 
Q 1419 2475 1153 2201 
Q 888 1928 888 1484 
z
" transform="scale(0.015625)"/>
       </defs>
       <use xlink:href="#ArialMT-30"/>
       <use xlink:href="#ArialMT-2e" x="55.615234"/>
       <use xlink:href="#ArialMT-39" x="83.398438"/>
       <use xlink:href="#ArialMT-36" x="139.013672"/>
      </g>
     </g>
    </g>
    <g id="ytick_6">
     <g id="line2d_12">
      <path d="M 57.6 67.906154 
L 518.4 67.906154 
" clip-path="url(#pd79ca090be)" style="fill: none; stroke: #ffffff; stroke-linecap: round"/>
     </g>
     <g id="text_13">
      <!-- 0.98 -->
      <g style="fill: #262626" transform="translate(26.692969 71.842951) scale(0.11 -0.11)">
       <use xlink:href="#ArialMT-30"/>
       <use xlink:href="#ArialMT-2e" x="55.615234"/>
       <use xlink:href="#ArialMT-39" x="83.398438"/>
       <use xlink:href="#ArialMT-38" x="139.013672"/>
      </g>
     </g>
    </g>
    <g id="ytick_7">
     <g id="line2d_13">
      <path d="M 57.6 31.182886 
L 518.4 31.182886 
" clip-path="url(#pd79ca090be)" style="fill: none; stroke: #ffffff; stroke-linecap: round"/>
     </g>
     <g id="text_14">
      <!-- 1.00 -->
      <g style="fill: #262626" transform="translate(26.692969 35.119683) scale(0.11 -0.11)">
       <use xlink:href="#ArialMT-31"/>
       <use xlink:href="#ArialMT-2e" x="55.615234"/>
       <use xlink:href="#ArialMT-30" x="83.398438"/>
       <use xlink:href="#ArialMT-30" x="139.013672"/>
      </g>
     </g>
    </g>
    <g id="text_15">
     <!-- Accuracy -->
     <g style="fill: #262626" transform="translate(20.167344 162.913125) rotate(-90) scale(0.12 -0.12)">
      <defs>
       <path id="ArialMT-41" d="M -9 0 
L 1750 4581 
L 2403 4581 
L 4278 0 
L 3588 0 
L 3053 1388 
L 1138 1388 
L 634 0 
L -9 0 
z
M 1313 1881 
L 2866 1881 
L 2388 3150 
Q 2169 3728 2063 4100 
Q 1975 3659 1816 3225 
L 1313 1881 
z
" transform="scale(0.015625)"/>
       <path id="ArialMT-75" d="M 2597 0 
L 2597 488 
Q 2209 -75 1544 -75 
Q 1250 -75 995 37 
Q 741 150 617 320 
Q 494 491 444 738 
Q 409 903 409 1263 
L 409 3319 
L 972 3319 
L 972 1478 
Q 972 1038 1006 884 
Q 1059 663 1231 536 
Q 1403 409 1656 409 
Q 1909 409 2131 539 
Q 2353 669 2445 892 
Q 2538 1116 2538 1541 
L 2538 3319 
L 3100 3319 
L 3100 0 
L 2597 0 
z
" transform="scale(0.015625)"/>
       <path id="ArialMT-72" d="M 416 0 
L 416 3319 
L 922 3319 
L 922 2816 
Q 1116 3169 1280 3281 
Q 1444 3394 1641 3394 
Q 1925 3394 2219 3213 
L 2025 2691 
Q 1819 2813 1613 2813 
Q 1428 2813 1281 2702 
Q 1134 2591 1072 2394 
Q 978 2094 978 1738 
L 978 0 
L 416 0 
z
" transform="scale(0.015625)"/>
       <path id="ArialMT-61" d="M 2588 409 
Q 2275 144 1986 34 
Q 1697 -75 1366 -75 
Q 819 -75 525 192 
Q 231 459 231 875 
Q 231 1119 342 1320 
Q 453 1522 633 1644 
Q 813 1766 1038 1828 
Q 1203 1872 1538 1913 
Q 2219 1994 2541 2106 
Q 2544 2222 2544 2253 
Q 2544 2597 2384 2738 
Q 2169 2928 1744 2928 
Q 1347 2928 1158 2789 
Q 969 2650 878 2297 
L 328 2372 
Q 403 2725 575 2942 
Q 747 3159 1072 3276 
Q 1397 3394 1825 3394 
Q 2250 3394 2515 3294 
Q 2781 3194 2906 3042 
Q 3031 2891 3081 2659 
Q 3109 2516 3109 2141 
L 3109 1391 
Q 3109 606 3145 398 
Q 3181 191 3288 0 
L 2700 0 
Q 2613 175 2588 409 
z
M 2541 1666 
Q 2234 1541 1622 1453 
Q 1275 1403 1131 1340 
Q 988 1278 909 1158 
Q 831 1038 831 891 
Q 831 666 1001 516 
Q 1172 366 1500 366 
Q 1825 366 2078 508 
Q 2331 650 2450 897 
Q 2541 1088 2541 1459 
L 2541 1666 
z
" transform="scale(0.015625)"/>
       <path id="ArialMT-79" d="M 397 -1278 
L 334 -750 
Q 519 -800 656 -800 
Q 844 -800 956 -737 
Q 1069 -675 1141 -563 
Q 1194 -478 1313 -144 
Q 1328 -97 1363 -6 
L 103 3319 
L 709 3319 
L 1400 1397 
Q 1534 1031 1641 628 
Q 1738 1016 1872 1384 
L 2581 3319 
L 3144 3319 
L 1881 -56 
Q 1678 -603 1566 -809 
Q 1416 -1088 1222 -1217 
Q 1028 -1347 759 -1347 
Q 597 -1347 397 -1278 
z
" transform="scale(0.015625)"/>
      </defs>
      <use xlink:href="#ArialMT-41"/>
      <use xlink:href="#ArialMT-63" x="66.699219"/>
      <use xlink:href="#ArialMT-63" x="116.699219"/>
      <use xlink:href="#ArialMT-75" x="166.699219"/>
      <use xlink:href="#ArialMT-72" x="222.314453"/>
      <use xlink:href="#ArialMT-61" x="255.615234"/>
      <use xlink:href="#ArialMT-63" x="311.230469"/>
      <use xlink:href="#ArialMT-79" x="361.230469"/>
     </g>
    </g>
   </g>
   <g id="line2d_14">
    <path d="M 78.545455 242.967273 
L 87.09462 103.641511 
L 95.643785 86.750054 
L 104.19295 72.537893 
L 112.742115 70.3245 
L 121.29128 64.266891 
L 129.840445 59.956664 
L 138.38961 53.666049 
L 146.938776 56.461902 
L 155.487941 53.433043 
L 164.037106 51.336208 
L 172.586271 50.287736 
L 181.135436 49.588827 
L 189.684601 46.909423 
L 198.233766 46.909423 
L 206.782931 43.181655 
L 215.332096 46.792974 
L 223.881262 43.065207 
L 232.430427 46.326962 
L 240.979592 43.181655 
L 249.528757 41.201268 
L 258.077922 37.473501 
L 266.627087 38.987876 
L 275.176252 43.181655 
L 283.725417 44.69603 
L 292.274583 35.72612 
L 300.823748 38.055961 
L 309.372913 35.493114 
L 317.922078 39.220882 
L 326.471243 40.385802 
L 335.020408 41.317826 
L 343.569573 37.240495 
L 352.118738 37.822955 
L 360.667904 40.036348 
L 369.217069 33.512727 
L 377.766234 36.425029 
L 386.315399 39.453888 
L 394.864564 36.075574 
L 403.413729 33.745733 
L 411.962894 36.192132 
L 420.512059 38.405415 
L 429.061224 35.72612 
L 437.61039 36.658035 
L 446.159555 35.027102 
L 454.70872 34.910654 
L 463.257885 35.027102 
L 471.80705 36.891041 
L 480.356215 34.444642 
L 488.90538 36.075574 
L 497.454545 34.211745 
" clip-path="url(#pd79ca090be)" style="fill: none; stroke: #008000; stroke-width: 1.5; stroke-linecap: round"/>
    <defs>
     <path id="m2787e33122" d="M 0 3 
C 0.795609 3 1.55874 2.683901 2.12132 2.12132 
C 2.683901 1.55874 3 0.795609 3 0 
C 3 -0.795609 2.683901 -1.55874 2.12132 -2.12132 
C 1.55874 -2.683901 0.795609 -3 0 -3 
C -0.795609 -3 -1.55874 -2.683901 -2.12132 -2.12132 
C -2.683901 -1.55874 -3 -0.795609 -3 0 
C -3 0.795609 -2.683901 1.55874 -2.12132 2.12132 
C -1.55874 2.683901 -0.795609 3 0 3 
z
" style="stroke: #008000"/>
    </defs>
    <g clip-path="url(#pd79ca090be)">
     <use xlink:href="#m2787e33122" x="78.545455" y="242.967273" style="fill: #008000; stroke: #008000"/>
     <use xlink:href="#m2787e33122" x="87.09462" y="103.641511" style="fill: #008000; stroke: #008000"/>
     <use xlink:href="#m2787e33122" x="95.643785" y="86.750054" style="fill: #008000; stroke: #008000"/>
     <use xlink:href="#m2787e33122" x="104.19295" y="72.537893" style="fill: #008000; stroke: #008000"/>
     <use xlink:href="#m2787e33122" x="112.742115" y="70.3245" style="fill: #008000; stroke: #008000"/>
     <use xlink:href="#m2787e33122" x="121.29128" y="64.266891" style="fill: #008000; stroke: #008000"/>
     <use xlink:href="#m2787e33122" x="129.840445" y="59.956664" style="fill: #008000; stroke: #008000"/>
     <use xlink:href="#m2787e33122" x="138.38961" y="53.666049" style="fill: #008000; stroke: #008000"/>
     <use xlink:href="#m2787e33122" x="146.938776" y="56.461902" style="fill: #008000; stroke: #008000"/>
     <use xlink:href="#m2787e33122" x="155.487941" y="53.433043" style="fill: #008000; stroke: #008000"/>
     <use xlink:href="#m2787e33122" x="164.037106" y="51.336208" style="fill: #008000; stroke: #008000"/>
     <use xlink:href="#m2787e33122" x="172.586271" y="50.287736" style="fill: #008000; stroke: #008000"/>
     <use xlink:href="#m2787e33122" x="181.135436" y="49.588827" style="fill: #008000; stroke: #008000"/>
     <use xlink:href="#m2787e33122" x="189.684601" y="46.909423" style="fill: #008000; stroke: #008000"/>
     <use xlink:href="#m2787e33122" x="198.233766" y="46.909423" style="fill: #008000; stroke: #008000"/>
     <use xlink:href="#m2787e33122" x="206.782931" y="43.181655" style="fill: #008000; stroke: #008000"/>
     <use xlink:href="#m2787e33122" x="215.332096" y="46.792974" style="fill: #008000; stroke: #008000"/>
     <use xlink:href="#m2787e33122" x="223.881262" y="43.065207" style="fill: #008000; stroke: #008000"/>
     <use xlink:href="#m2787e33122" x="232.430427" y="46.326962" style="fill: #008000; stroke: #008000"/>
     <use xlink:href="#m2787e33122" x="240.979592" y="43.181655" style="fill: #008000; stroke: #008000"/>
     <use xlink:href="#m2787e33122" x="249.528757" y="41.201268" style="fill: #008000; stroke: #008000"/>
     <use xlink:href="#m2787e33122" x="258.077922" y="37.473501" style="fill: #008000; stroke: #008000"/>
     <use xlink:href="#m2787e33122" x="266.627087" y="38.987876" style="fill: #008000; stroke: #008000"/>
     <use xlink:href="#m2787e33122" x="275.176252" y="43.181655" style="fill: #008000; stroke: #008000"/>
     <use xlink:href="#m2787e33122" x="283.725417" y="44.69603" style="fill: #008000; stroke: #008000"/>
     <use xlink:href="#m2787e33122" x="292.274583" y="35.72612" style="fill: #008000; stroke: #008000"/>
     <use xlink:href="#m2787e33122" x="300.823748" y="38.055961" style="fill: #008000; stroke: #008000"/>
     <use xlink:href="#m2787e33122" x="309.372913" y="35.493114" style="fill: #008000; stroke: #008000"/>
     <use xlink:href="#m2787e33122" x="317.922078" y="39.220882" style="fill: #008000; stroke: #008000"/>
     <use xlink:href="#m2787e33122" x="326.471243" y="40.385802" style="fill: #008000; stroke: #008000"/>
     <use xlink:href="#m2787e33122" x="335.020408" y="41.317826" style="fill: #008000; stroke: #008000"/>
     <use xlink:href="#m2787e33122" x="343.569573" y="37.240495" style="fill: #008000; stroke: #008000"/>
     <use xlink:href="#m2787e33122" x="352.118738" y="37.822955" style="fill: #008000; stroke: #008000"/>
     <use xlink:href="#m2787e33122" x="360.667904" y="40.036348" style="fill: #008000; stroke: #008000"/>
     <use xlink:href="#m2787e33122" x="369.217069" y="33.512727" style="fill: #008000; stroke: #008000"/>
     <use xlink:href="#m2787e33122" x="377.766234" y="36.425029" style="fill: #008000; stroke: #008000"/>
     <use xlink:href="#m2787e33122" x="386.315399" y="39.453888" style="fill: #008000; stroke: #008000"/>
     <use xlink:href="#m2787e33122" x="394.864564" y="36.075574" style="fill: #008000; stroke: #008000"/>
     <use xlink:href="#m2787e33122" x="403.413729" y="33.745733" style="fill: #008000; stroke: #008000"/>
     <use xlink:href="#m2787e33122" x="411.962894" y="36.192132" style="fill: #008000; stroke: #008000"/>
     <use xlink:href="#m2787e33122" x="420.512059" y="38.405415" style="fill: #008000; stroke: #008000"/>
     <use xlink:href="#m2787e33122" x="429.061224" y="35.72612" style="fill: #008000; stroke: #008000"/>
     <use xlink:href="#m2787e33122" x="437.61039" y="36.658035" style="fill: #008000; stroke: #008000"/>
     <use xlink:href="#m2787e33122" x="446.159555" y="35.027102" style="fill: #008000; stroke: #008000"/>
     <use xlink:href="#m2787e33122" x="454.70872" y="34.910654" style="fill: #008000; stroke: #008000"/>
     <use xlink:href="#m2787e33122" x="463.257885" y="35.027102" style="fill: #008000; stroke: #008000"/>
     <use xlink:href="#m2787e33122" x="471.80705" y="36.891041" style="fill: #008000; stroke: #008000"/>
     <use xlink:href="#m2787e33122" x="480.356215" y="34.444642" style="fill: #008000; stroke: #008000"/>
     <use xlink:href="#m2787e33122" x="488.90538" y="36.075574" style="fill: #008000; stroke: #008000"/>
     <use xlink:href="#m2787e33122" x="497.454545" y="34.211745" style="fill: #008000; stroke: #008000"/>
    </g>
   </g>
   <g id="line2d_15">
    <path d="M 78.545455 133.347421 
L 87.09462 134.74699 
L 95.643785 102.558126 
L 104.19295 106.290162 
L 112.742115 111.421766 
L 121.29128 89.496001 
L 129.840445 84.830956 
L 138.38961 139.412034 
L 146.938776 69.436253 
L 155.487941 75.034307 
L 164.037106 84.830956 
L 172.586271 110.955207 
L 181.135436 88.096432 
L 189.684601 83.431388 
L 198.233766 112.354775 
L 206.782931 67.570235 
L 215.332096 120.285296 
L 223.881262 67.570235 
L 232.430427 79.232902 
L 240.979592 77.366884 
L 249.528757 73.634848 
L 258.077922 71.76883 
L 266.627087 84.364397 
L 275.176252 73.634848 
L 283.725417 72.701839 
L 292.274583 72.23528 
L 300.823748 62.438741 
L 309.372913 86.230415 
L 317.922078 70.835822 
L 326.471243 90.42901 
L 335.020408 73.634848 
L 343.569573 67.103786 
L 352.118738 74.101298 
L 360.667904 73.634848 
L 369.217069 66.637227 
L 377.766234 84.364397 
L 386.315399 68.503244 
L 394.864564 64.771209 
L 403.413729 61.505732 
L 411.962894 86.696974 
L 420.512059 93.694596 
L 429.061224 71.76883 
L 437.61039 68.036795 
L 446.159555 61.972182 
L 454.70872 66.637227 
L 463.257885 68.503244 
L 471.80705 67.103786 
L 480.356215 64.771209 
L 488.90538 63.8382 
L 497.454545 63.8382 
" clip-path="url(#pd79ca090be)" style="fill: none; stroke: #ff0000; stroke-width: 1.5; stroke-linecap: round"/>
    <defs>
     <path id="m886fafea40" d="M 0 3 
C 0.795609 3 1.55874 2.683901 2.12132 2.12132 
C 2.683901 1.55874 3 0.795609 3 0 
C 3 -0.795609 2.683901 -1.55874 2.12132 -2.12132 
C 1.55874 -2.683901 0.795609 -3 0 -3 
C -0.795609 -3 -1.55874 -2.683901 -2.12132 -2.12132 
C -2.683901 -1.55874 -3 -0.795609 -3 0 
C -3 0.795609 -2.683901 1.55874 -2.12132 2.12132 
C -1.55874 2.683901 -0.795609 3 0 3 
z
" style="stroke: #ff0000"/>
    </defs>
    <g clip-path="url(#pd79ca090be)">
     <use xlink:href="#m886fafea40" x="78.545455" y="133.347421" style="fill: #ff0000; stroke: #ff0000"/>
     <use xlink:href="#m886fafea40" x="87.09462" y="134.74699" style="fill: #ff0000; stroke: #ff0000"/>
     <use xlink:href="#m886fafea40" x="95.643785" y="102.558126" style="fill: #ff0000; stroke: #ff0000"/>
     <use xlink:href="#m886fafea40" x="104.19295" y="106.290162" style="fill: #ff0000; stroke: #ff0000"/>
     <use xlink:href="#m886fafea40" x="112.742115" y="111.421766" style="fill: #ff0000; stroke: #ff0000"/>
     <use xlink:href="#m886fafea40" x="121.29128" y="89.496001" style="fill: #ff0000; stroke: #ff0000"/>
     <use xlink:href="#m886fafea40" x="129.840445" y="84.830956" style="fill: #ff0000; stroke: #ff0000"/>
     <use xlink:href="#m886fafea40" x="138.38961" y="139.412034" style="fill: #ff0000; stroke: #ff0000"/>
     <use xlink:href="#m886fafea40" x="146.938776" y="69.436253" style="fill: #ff0000; stroke: #ff0000"/>
     <use xlink:href="#m886fafea40" x="155.487941" y="75.034307" style="fill: #ff0000; stroke: #ff0000"/>
     <use xlink:href="#m886fafea40" x="164.037106" y="84.830956" style="fill: #ff0000; stroke: #ff0000"/>
     <use xlink:href="#m886fafea40" x="172.586271" y="110.955207" style="fill: #ff0000; stroke: #ff0000"/>
     <use xlink:href="#m886fafea40" x="181.135436" y="88.096432" style="fill: #ff0000; stroke: #ff0000"/>
     <use xlink:href="#m886fafea40" x="189.684601" y="83.431388" style="fill: #ff0000; stroke: #ff0000"/>
     <use xlink:href="#m886fafea40" x="198.233766" y="112.354775" style="fill: #ff0000; stroke: #ff0000"/>
     <use xlink:href="#m886fafea40" x="206.782931" y="67.570235" style="fill: #ff0000; stroke: #ff0000"/>
     <use xlink:href="#m886fafea40" x="215.332096" y="120.285296" style="fill: #ff0000; stroke: #ff0000"/>
     <use xlink:href="#m886fafea40" x="223.881262" y="67.570235" style="fill: #ff0000; stroke: #ff0000"/>
     <use xlink:href="#m886fafea40" x="232.430427" y="79.232902" style="fill: #ff0000; stroke: #ff0000"/>
     <use xlink:href="#m886fafea40" x="240.979592" y="77.366884" style="fill: #ff0000; stroke: #ff0000"/>
     <use xlink:href="#m886fafea40" x="249.528757" y="73.634848" style="fill: #ff0000; stroke: #ff0000"/>
     <use xlink:href="#m886fafea40" x="258.077922" y="71.76883" style="fill: #ff0000; stroke: #ff0000"/>
     <use xlink:href="#m886fafea40" x="266.627087" y="84.364397" style="fill: #ff0000; stroke: #ff0000"/>
     <use xlink:href="#m886fafea40" x="275.176252" y="73.634848" style="fill: #ff0000; stroke: #ff0000"/>
     <use xlink:href="#m886fafea40" x="283.725417" y="72.701839" style="fill: #ff0000; stroke: #ff0000"/>
     <use xlink:href="#m886fafea40" x="292.274583" y="72.23528" style="fill: #ff0000; stroke: #ff0000"/>
     <use xlink:href="#m886fafea40" x="300.823748" y="62.438741" style="fill: #ff0000; stroke: #ff0000"/>
     <use xlink:href="#m886fafea40" x="309.372913" y="86.230415" style="fill: #ff0000; stroke: #ff0000"/>
     <use xlink:href="#m886fafea40" x="317.922078" y="70.835822" style="fill: #ff0000; stroke: #ff0000"/>
     <use xlink:href="#m886fafea40" x="326.471243" y="90.42901" style="fill: #ff0000; stroke: #ff0000"/>
     <use xlink:href="#m886fafea40" x="335.020408" y="73.634848" style="fill: #ff0000; stroke: #ff0000"/>
     <use xlink:href="#m886fafea40" x="343.569573" y="67.103786" style="fill: #ff0000; stroke: #ff0000"/>
     <use xlink:href="#m886fafea40" x="352.118738" y="74.101298" style="fill: #ff0000; stroke: #ff0000"/>
     <use xlink:href="#m886fafea40" x="360.667904" y="73.634848" style="fill: #ff0000; stroke: #ff0000"/>
     <use xlink:href="#m886fafea40" x="369.217069" y="66.637227" style="fill: #ff0000; stroke: #ff0000"/>
     <use xlink:href="#m886fafea40" x="377.766234" y="84.364397" style="fill: #ff0000; stroke: #ff0000"/>
     <use xlink:href="#m886fafea40" x="386.315399" y="68.503244" style="fill: #ff0000; stroke: #ff0000"/>
     <use xlink:href="#m886fafea40" x="394.864564" y="64.771209" style="fill: #ff0000; stroke: #ff0000"/>
     <use xlink:href="#m886fafea40" x="403.413729" y="61.505732" style="fill: #ff0000; stroke: #ff0000"/>
     <use xlink:href="#m886fafea40" x="411.962894" y="86.696974" style="fill: #ff0000; stroke: #ff0000"/>
     <use xlink:href="#m886fafea40" x="420.512059" y="93.694596" style="fill: #ff0000; stroke: #ff0000"/>
     <use xlink:href="#m886fafea40" x="429.061224" y="71.76883" style="fill: #ff0000; stroke: #ff0000"/>
     <use xlink:href="#m886fafea40" x="437.61039" y="68.036795" style="fill: #ff0000; stroke: #ff0000"/>
     <use xlink:href="#m886fafea40" x="446.159555" y="61.972182" style="fill: #ff0000; stroke: #ff0000"/>
     <use xlink:href="#m886fafea40" x="454.70872" y="66.637227" style="fill: #ff0000; stroke: #ff0000"/>
     <use xlink:href="#m886fafea40" x="463.257885" y="68.503244" style="fill: #ff0000; stroke: #ff0000"/>
     <use xlink:href="#m886fafea40" x="471.80705" y="67.103786" style="fill: #ff0000; stroke: #ff0000"/>
     <use xlink:href="#m886fafea40" x="480.356215" y="64.771209" style="fill: #ff0000; stroke: #ff0000"/>
     <use xlink:href="#m886fafea40" x="488.90538" y="63.8382" style="fill: #ff0000; stroke: #ff0000"/>
     <use xlink:href="#m886fafea40" x="497.454545" y="63.8382" style="fill: #ff0000; stroke: #ff0000"/>
    </g>
   </g>
   <g id="patch_3">
    <path d="M 57.6 253.44 
L 57.6 23.04 
" style="fill: none; stroke: #ffffff; stroke-width: 1.25; stroke-linejoin: miter; stroke-linecap: square"/>
   </g>
   <g id="patch_4">
    <path d="M 518.4 253.44 
L 518.4 23.04 
" style="fill: none; stroke: #ffffff; stroke-width: 1.25; stroke-linejoin: miter; stroke-linecap: square"/>
   </g>
   <g id="patch_5">
    <path d="M 57.6 253.44 
L 518.4 253.44 
" style="fill: none; stroke: #ffffff; stroke-width: 1.25; stroke-linejoin: miter; stroke-linecap: square"/>
   </g>
   <g id="patch_6">
    <path d="M 57.6 23.04 
L 518.4 23.04 
" style="fill: none; stroke: #ffffff; stroke-width: 1.25; stroke-linejoin: miter; stroke-linecap: square"/>
   </g>
   <g id="text_16">
    <!-- Model Accuracy -->
    <g style="fill: #262626" transform="translate(245.649375 17.04) scale(0.12 -0.12)">
     <defs>
      <path id="ArialMT-4d" d="M 475 0 
L 475 4581 
L 1388 4581 
L 2472 1338 
Q 2622 884 2691 659 
Q 2769 909 2934 1394 
L 4031 4581 
L 4847 4581 
L 4847 0 
L 4263 0 
L 4263 3834 
L 2931 0 
L 2384 0 
L 1059 3900 
L 1059 0 
L 475 0 
z
" transform="scale(0.015625)"/>
      <path id="ArialMT-64" d="M 2575 0 
L 2575 419 
Q 2259 -75 1647 -75 
Q 1250 -75 917 144 
Q 584 363 401 755 
Q 219 1147 219 1656 
Q 219 2153 384 2558 
Q 550 2963 881 3178 
Q 1213 3394 1622 3394 
Q 1922 3394 2156 3267 
Q 2391 3141 2538 2938 
L 2538 4581 
L 3097 4581 
L 3097 0 
L 2575 0 
z
M 797 1656 
Q 797 1019 1065 703 
Q 1334 388 1700 388 
Q 2069 388 2326 689 
Q 2584 991 2584 1609 
Q 2584 2291 2321 2609 
Q 2059 2928 1675 2928 
Q 1300 2928 1048 2622 
Q 797 2316 797 1656 
z
" transform="scale(0.015625)"/>
      <path id="ArialMT-65" d="M 2694 1069 
L 3275 997 
Q 3138 488 2766 206 
Q 2394 -75 1816 -75 
Q 1088 -75 661 373 
Q 234 822 234 1631 
Q 234 2469 665 2931 
Q 1097 3394 1784 3394 
Q 2450 3394 2872 2941 
Q 3294 2488 3294 1666 
Q 3294 1616 3291 1516 
L 816 1516 
Q 847 969 1125 678 
Q 1403 388 1819 388 
Q 2128 388 2347 550 
Q 2566 713 2694 1069 
z
M 847 1978 
L 2700 1978 
Q 2663 2397 2488 2606 
Q 2219 2931 1791 2931 
Q 1403 2931 1139 2672 
Q 875 2413 847 1978 
z
" transform="scale(0.015625)"/>
      <path id="ArialMT-6c" d="M 409 0 
L 409 4581 
L 972 4581 
L 972 0 
L 409 0 
z
" transform="scale(0.015625)"/>
      <path id="ArialMT-20" transform="scale(0.015625)"/>
     </defs>
     <use xlink:href="#ArialMT-4d"/>
     <use xlink:href="#ArialMT-6f" x="83.300781"/>
     <use xlink:href="#ArialMT-64" x="138.916016"/>
     <use xlink:href="#ArialMT-65" x="194.53125"/>
     <use xlink:href="#ArialMT-6c" x="250.146484"/>
     <use xlink:href="#ArialMT-20" x="272.363281"/>
     <use xlink:href="#ArialMT-41" x="294.646484"/>
     <use xlink:href="#ArialMT-63" x="361.345703"/>
     <use xlink:href="#ArialMT-63" x="411.345703"/>
     <use xlink:href="#ArialMT-75" x="461.345703"/>
     <use xlink:href="#ArialMT-72" x="516.960938"/>
     <use xlink:href="#ArialMT-61" x="550.261719"/>
     <use xlink:href="#ArialMT-63" x="605.876953"/>
     <use xlink:href="#ArialMT-79" x="655.876953"/>
    </g>
   </g>
   <g id="legend_1">
    <g id="patch_7">
     <path d="M 428.000625 247.94 
L 510.7 247.94 
Q 512.9 247.94 512.9 245.74 
L 512.9 215.720313 
Q 512.9 213.520312 510.7 213.520312 
L 428.000625 213.520312 
Q 425.800625 213.520312 425.800625 215.720313 
L 425.800625 245.74 
Q 425.800625 247.94 428.000625 247.94 
z
" style="fill: #eaeaf2; opacity: 0.8; stroke: #cccccc; stroke-linejoin: miter"/>
    </g>
    <g id="line2d_16">
     <path d="M 430.200625 221.943906 
L 441.200625 221.943906 
L 452.200625 221.943906 
" style="fill: none; stroke: #008000; stroke-width: 1.5; stroke-linecap: round"/>
     <g>
      <use xlink:href="#m2787e33122" x="441.200625" y="221.943906" style="fill: #008000; stroke: #008000"/>
     </g>
    </g>
    <g id="text_17">
     <!-- Train -->
     <g style="fill: #262626" transform="translate(461.000625 225.793906) scale(0.11 -0.11)">
      <defs>
       <path id="ArialMT-54" d="M 1659 0 
L 1659 4041 
L 150 4041 
L 150 4581 
L 3781 4581 
L 3781 4041 
L 2266 4041 
L 2266 0 
L 1659 0 
z
" transform="scale(0.015625)"/>
       <path id="ArialMT-69" d="M 425 3934 
L 425 4581 
L 988 4581 
L 988 3934 
L 425 3934 
z
M 425 0 
L 425 3319 
L 988 3319 
L 988 0 
L 425 0 
z
" transform="scale(0.015625)"/>
       <path id="ArialMT-6e" d="M 422 0 
L 422 3319 
L 928 3319 
L 928 2847 
Q 1294 3394 1984 3394 
Q 2284 3394 2536 3286 
Q 2788 3178 2913 3003 
Q 3038 2828 3088 2588 
Q 3119 2431 3119 2041 
L 3119 0 
L 2556 0 
L 2556 2019 
Q 2556 2363 2490 2533 
Q 2425 2703 2258 2804 
Q 2091 2906 1866 2906 
Q 1506 2906 1245 2678 
Q 984 2450 984 1813 
L 984 0 
L 422 0 
z
" transform="scale(0.015625)"/>
      </defs>
      <use xlink:href="#ArialMT-54"/>
      <use xlink:href="#ArialMT-72" x="57.333984"/>
      <use xlink:href="#ArialMT-61" x="90.634766"/>
      <use xlink:href="#ArialMT-69" x="146.25"/>
      <use xlink:href="#ArialMT-6e" x="168.466797"/>
     </g>
    </g>
    <g id="line2d_17">
     <path d="M 430.200625 237.50375 
L 441.200625 237.50375 
L 452.200625 237.50375 
" style="fill: none; stroke: #ff0000; stroke-width: 1.5; stroke-linecap: round"/>
     <g>
      <use xlink:href="#m886fafea40" x="441.200625" y="237.50375" style="fill: #ff0000; stroke: #ff0000"/>
     </g>
    </g>
    <g id="text_18">
     <!-- Validation -->
     <g style="fill: #262626" transform="translate(461.000625 241.35375) scale(0.11 -0.11)">
      <defs>
       <path id="ArialMT-56" d="M 1803 0 
L 28 4581 
L 684 4581 
L 1875 1253 
Q 2019 853 2116 503 
Q 2222 878 2363 1253 
L 3600 4581 
L 4219 4581 
L 2425 0 
L 1803 0 
z
" transform="scale(0.015625)"/>
       <path id="ArialMT-74" d="M 1650 503 
L 1731 6 
Q 1494 -44 1306 -44 
Q 1000 -44 831 53 
Q 663 150 594 308 
Q 525 466 525 972 
L 525 2881 
L 113 2881 
L 113 3319 
L 525 3319 
L 525 4141 
L 1084 4478 
L 1084 3319 
L 1650 3319 
L 1650 2881 
L 1084 2881 
L 1084 941 
Q 1084 700 1114 631 
Q 1144 563 1211 522 
Q 1278 481 1403 481 
Q 1497 481 1650 503 
z
" transform="scale(0.015625)"/>
      </defs>
      <use xlink:href="#ArialMT-56"/>
      <use xlink:href="#ArialMT-61" x="59.324219"/>
      <use xlink:href="#ArialMT-6c" x="114.939453"/>
      <use xlink:href="#ArialMT-69" x="137.15625"/>
      <use xlink:href="#ArialMT-64" x="159.373047"/>
      <use xlink:href="#ArialMT-61" x="214.988281"/>
      <use xlink:href="#ArialMT-74" x="270.603516"/>
      <use xlink:href="#ArialMT-69" x="298.386719"/>
      <use xlink:href="#ArialMT-6f" x="320.603516"/>
      <use xlink:href="#ArialMT-6e" x="376.21875"/>
     </g>
    </g>
   </g>
  </g>
 </g>
 <defs>
  <clipPath id="pd79ca090be">
   <rect x="57.6" y="23.04" width="460.8" height="230.4"/>
  </clipPath>
 </defs>
</svg>
